<svg width="3947" height="2464" viewBox="0 0 3947 2464" fill="none" xmlns="http://www.w3.org/2000/svg">
<g clip-path="url(#clip0_313_2318)">
<path d="M3819.24 1486.62C3818.97 1488.16 3817.5 1489.19 3815.95 1488.92C3814.41 1488.65 3813.38 1487.18 3813.65 1485.64C3813.92 1484.09 3815.39 1483.06 3816.93 1483.33C3818.48 1483.6 3819.51 1485.07 3819.24 1486.62Z" fill="white"/>
<path d="M3775.68 1471.94C3772.6 1471.4 3769.64 1473.47 3769.1 1476.56L3739.08 1647.84C3738.54 1650.93 3740.61 1653.88 3743.69 1654.42L3828.04 1669.21C3831.13 1669.75 3834.08 1667.68 3834.62 1664.59L3864.67 1493.31C3865.22 1490.23 3863.14 1487.28 3860.06 1486.73L3775.68 1471.94ZM3826.73 1676.67L3742.38 1661.88C3735.19 1660.62 3730.36 1653.73 3731.62 1646.53L3761.64 1475.25C3762.91 1468.05 3769.79 1463.22 3776.99 1464.48L3861.37 1479.28C3868.56 1480.54 3873.4 1487.42 3872.13 1494.62L3842.08 1665.9C3840.82 1673.1 3833.93 1677.93 3826.73 1676.67Z" fill="white"/>
<path d="M3726.71 1475.42C3728.2 1478.77 3729.5 1481.1 3730.29 1483.58C3742.53 1522.06 3754.92 1560.49 3766.73 1599.1C3769.24 1607.28 3769.67 1616.12 3770.8 1624.69C3770.95 1625.86 3769.74 1628.16 3768.89 1628.31C3767.54 1628.54 3765.41 1627.82 3764.56 1626.76C3757.36 1617.69 3752.56 1607.5 3749.14 1596.33C3738.13 1560.34 3726.59 1524.5 3715.11 1488.65C3713.86 1484.74 3714.98 1479.68 3710.04 1477.17C3709.47 1476.88 3709.7 1472.9 3710.38 1472.63C3715.12 1470.67 3720.04 1469.07 3725.02 1467.84C3725.71 1467.68 3727.7 1470.1 3727.92 1471.51C3728.15 1472.99 3726.97 1474.69 3726.71 1475.42Z" fill="white"/>
<path d="M764.026 80.7026C764.388 81.8908 763.716 83.1469 762.527 83.5081C761.339 83.8684 760.083 83.1973 759.723 82.0091C759.362 80.8209 760.033 79.5648 761.221 79.2036C762.409 78.8433 763.666 79.5144 764.026 80.7026Z" fill="white"/>
<path d="M727.988 85.909C725.615 86.6296 724.27 89.1472 724.991 91.5255L765.006 223.34C765.729 225.717 768.247 227.062 770.62 226.341L835.534 206.636C837.911 205.913 839.257 203.396 838.535 201.018L798.541 69.1979C797.819 66.8196 795.301 65.4746 792.928 66.1953L727.988 85.909ZM837.277 212.376L772.362 232.082C766.824 233.763 760.949 230.624 759.266 225.082L719.251 93.2675C717.569 87.7252 720.708 81.8502 726.245 80.1687L791.185 60.455C796.723 58.7735 802.598 61.9127 804.281 67.455L844.275 199.275C845.957 204.818 842.819 210.693 837.277 212.376" fill="white"/>
<path d="M694.615 105.878C696.862 107.714 698.614 108.891 700.063 110.367C722.475 133.186 744.973 155.923 767.128 178.991C771.825 183.883 775.292 189.976 779.154 195.633C779.682 196.406 779.646 198.462 779.094 198.873C778.225 199.519 776.463 199.775 775.481 199.322C767.151 195.487 760.111 190.001 753.705 183.33C733.05 161.822 712.08 140.614 691.145 119.378C688.861 117.059 687.849 113.083 683.459 113.075C682.952 113.074 681.692 110.178 682.07 109.741C684.726 106.664 687.628 103.772 690.713 101.125C691.139 100.759 693.415 101.761 694.073 102.678C694.763 103.643 694.536 105.267 694.615 105.878Z" fill="white"/>
<path d="M683.889 1889.63C676.753 1901.47 665.437 1909.82 652.023 1913.14C638.608 1916.47 624.7 1914.37 612.864 1907.23C601.03 1900.1 592.68 1888.78 589.355 1875.36C586.031 1861.95 588.13 1848.04 595.263 1836.21C602.398 1824.37 613.715 1816.02 627.131 1812.7C640.544 1809.37 654.449 1811.47 666.288 1818.6C678.123 1825.74 686.473 1837.06 689.797 1850.47C693.123 1863.89 691.023 1877.79 683.889 1889.63ZM669.901 1812.61C656.009 1804.23 640.038 1802.28 625.446 1805.9C610.854 1809.52 597.64 1818.7 589.266 1832.59C572.516 1860.38 581.464 1896.48 609.25 1913.23C623.142 1921.6 639.115 1923.55 653.707 1919.94C668.299 1916.32 681.511 1907.14 689.886 1893.25C706.635 1865.46 697.688 1829.36 669.901 1812.61Z" fill="white"/>
<path d="M659.712 1864.85L639.252 1868.08L624.237 1839.06L628.875 1836.66L642.16 1862.34L658.899 1859.7L659.712 1864.85Z" fill="white"/>
<path d="M600.135 1807.68L647.956 1795.83L619.392 1680.57L571.572 1692.42L600.135 1807.68ZM651.751 1800.26C651.748 1800.26 651.746 1800.26 651.744 1800.26L598.858 1813.37C598.187 1813.54 597.475 1813.43 596.882 1813.07C596.29 1812.72 595.863 1812.14 595.696 1811.47L565.878 1691.15C565.532 1689.75 566.382 1688.34 567.776 1687.99C567.779 1687.99 567.78 1687.99 567.783 1687.98L620.671 1674.88C621.342 1674.71 622.051 1674.82 622.646 1675.18C623.238 1675.53 623.666 1676.11 623.831 1676.78L653.65 1797.1C653.998 1798.5 653.146 1799.91 651.751 1800.26Z" fill="white"/>
<path d="M659.115 2045.67L706.938 2033.82L678.375 1918.56L630.553 1930.41L659.115 2045.67ZM710.733 2038.25C710.73 2038.25 710.727 2038.25 710.725 2038.25L657.838 2051.36C656.439 2051.71 655.023 2050.85 654.677 2049.45L624.858 1929.13C624.691 1928.46 624.798 1927.75 625.157 1927.16C625.513 1926.57 626.089 1926.14 626.758 1925.97C626.761 1925.97 626.762 1925.97 626.763 1925.97L679.655 1912.87C681.053 1912.52 682.467 1913.37 682.815 1914.77L712.631 2035.09C712.797 2035.77 712.691 2036.48 712.333 2037.07C711.977 2037.66 711.402 2038.09 710.733 2038.25Z" fill="white"/>
<path d="M597.22 1903.38L617.704 1929.53C619.142 1931.37 620.994 1932.83 623.112 1933.81L629.433 1936.74L628.037 1931.11L618.616 1917.49C618.616 1917.49 603.677 1910.7 597.22 1903.38Z" fill="white"/>
<path d="M695.228 1879.1L689.326 1911.78C688.911 1914.08 687.958 1916.24 686.543 1918.1L682.32 1923.63L680.926 1918L682.895 1901.56C682.895 1901.56 692.934 1888.58 695.228 1879.1" fill="white"/>
<path d="M583.107 1846.44L589.011 1813.75C589.425 1811.46 590.378 1809.3 591.793 1807.44L596.017 1801.91L597.41 1807.53L595.441 1823.98C595.441 1823.98 585.402 1836.96 583.107 1846.44Z" fill="white"/>
<path d="M681.118 1822.15L660.634 1796C659.195 1794.17 657.34 1792.7 655.224 1791.72L648.904 1788.8L650.3 1794.43L659.72 1808.05C659.72 1808.05 674.66 1814.84 681.118 1822.15Z" fill="white"/>
<path d="M697.824 1868.41L701.94 1863.77C702.541 1863.09 702.873 1862.21 702.863 1861.3C702.821 1857.77 702.108 1848.07 696.321 1835.43C695.977 1834.67 695.397 1834.06 694.664 1833.68L688.412 1830.44C688.412 1830.44 699.525 1846.81 697.824 1868.41Z" fill="white"/>
<path d="M697.908 1882.59L696.105 1882.13L699.12 1870.32L700.923 1870.78L697.908 1882.59Z" fill="white"/>
<path d="M688.675 1828.18L680.498 1819.15L681.878 1817.9L690.054 1826.93L688.675 1828.18Z" fill="white"/>
<path d="M622.696 1818.63L632.95 1816.09C633.272 1816.01 633.558 1816.32 633.452 1816.63L630.336 1826.02C630.238 1826.31 629.868 1826.4 629.643 1826.19L622.506 1819.35C622.267 1819.12 622.374 1818.71 622.696 1818.63Z" fill="white"/>
<path d="M651.265 1908.07L649.458 1908.52L646.757 1897.62L648.564 1897.17L651.265 1908.07Z" fill="white"/>
<path d="M684.393 1852.89L673.493 1855.59L673.045 1853.78L683.945 1851.08L684.393 1852.89Z" fill="white"/>
<path d="M606.013 1872.31L595.113 1875.01L594.665 1873.2L605.565 1870.5L606.013 1872.31Z" fill="white"/>
<path d="M3096.77 118.721C3090.41 123.509 3082.57 125.537 3074.68 124.429C3066.8 123.319 3059.82 119.207 3055.03 112.851C3050.25 106.493 3048.22 98.6512 3049.33 90.7686C3050.43 82.8859 3054.55 75.9072 3060.9 71.1166C3067.26 66.3272 3075.1 64.3006 3082.99 65.4099C3090.87 66.5179 3097.85 70.6299 3102.64 76.9872C3107.43 83.3446 3109.45 91.1872 3108.34 99.0699C3107.24 106.951 3103.12 113.93 3096.77 118.721ZM3105.86 74.5606C3100.23 67.0979 3092.12 62.6219 3083.55 61.4152C3074.97 60.2099 3065.94 62.2739 3058.48 67.8966C3043.55 79.1406 3040.57 100.353 3051.81 115.277C3057.43 122.739 3065.55 127.217 3074.12 128.422C3082.7 129.629 3091.73 127.563 3099.19 121.942C3114.12 110.698 3117.1 89.4846 3105.86 74.5606" fill="white"/>
<path d="M3089.18 100.281L3077.55 97.6039L3075.77 78.8719L3078.76 78.5866L3080.34 95.1613L3089.85 97.3519L3089.18 100.281Z" fill="white"/>
<path d="M3069.64 56.9212L3097.74 60.8732L3107.27 -6.84942L3079.17 -10.8001L3069.64 56.9212ZM3098.81 64.0599C3098.81 64.0599 3098.81 64.0599 3098.81 64.0586L3067.74 59.6892C3067.34 59.6346 3066.98 59.4239 3066.74 59.1052C3066.5 58.7866 3066.4 58.3866 3066.46 57.9919L3076.4 -12.7068C3076.52 -13.5281 3077.27 -14.1001 3078.09 -13.9868C3078.1 -13.9868 3078.1 -13.9868 3078.1 -13.9868L3109.17 -9.61609C3109.57 -9.56142 3109.93 -9.35076 3110.17 -9.03209C3110.4 -8.71342 3110.51 -8.31342 3110.45 -7.91876L3100.51 62.7799C3100.39 63.6012 3099.64 64.1732 3098.81 64.0599" fill="white"/>
<path d="M3049.98 196.76L3078.07 200.713L3087.6 132.992L3059.5 129.038L3049.98 196.76ZM3079.15 203.9C3079.15 203.9 3079.14 203.9 3079.14 203.898L3048.07 199.528C3047.25 199.412 3046.67 198.652 3046.79 197.83L3056.73 127.132C3056.79 126.737 3057 126.38 3057.32 126.141C3057.63 125.901 3058.03 125.797 3058.43 125.852C3058.43 125.852 3058.43 125.852 3058.43 125.853L3089.51 130.224C3090.33 130.34 3090.9 131.1 3090.79 131.922L3080.84 202.62C3080.79 203.014 3080.58 203.372 3080.26 203.612C3079.94 203.85 3079.54 203.954 3079.15 203.9" fill="white"/>
<path d="M3047.5 107.432L3052.82 125.806C3053.2 127.097 3053.87 128.28 3054.79 129.258L3057.54 132.18L3058.01 128.872L3055.9 119.568C3055.9 119.568 3049.38 112.728 3047.5 107.432" fill="white"/>
<path d="M3105.09 115.532L3094.91 131.727C3094.19 132.863 3093.22 133.815 3092.06 134.501L3088.62 136.551L3089.08 133.244L3093.67 124.88C3093.67 124.88 3101.83 120.105 3105.09 115.532" fill="white"/>
<path d="M3052.21 73.9727L3062.39 57.778C3063.11 56.642 3064.08 55.69 3065.24 55.0047L3068.68 52.9527L3068.22 56.2607L3063.63 64.6247C3063.63 64.6247 3055.47 69.3993 3052.21 73.9727Z" fill="white"/>
<path d="M3109.8 82.0703L3104.48 63.6943C3104.1 62.405 3103.43 61.2223 3102.51 60.2436L3099.76 57.3223L3099.29 60.629L3101.4 69.9343C3101.4 69.9343 3107.92 76.7743 3109.8 82.0703" fill="white"/>
<path d="M3108.78 110.379L3111.97 108.783C3112.44 108.548 3112.81 108.151 3113 107.664C3113.73 105.766 3115.44 100.431 3115.07 92.4309C3115.04 91.9549 3114.87 91.5002 3114.56 91.1389L3111.91 88.0629C3111.91 88.0629 3114.33 99.2016 3108.78 110.379Z" fill="white"/>
<path d="M3105.77 117.973L3104.91 117.339L3109.06 111.681L3109.92 112.314L3105.77 117.973Z" fill="white"/>
<path d="M3112.54 86.918L3110.11 80.3353L3111.12 79.9633L3113.54 86.5473L3112.54 86.918Z" fill="white"/>
<path d="M3079.34 67.6266L3085.37 68.4733C3085.56 68.5013 3085.64 68.7266 3085.52 68.8719L3081.84 73.2146C3081.72 73.3506 3081.5 73.3213 3081.43 73.1573L3079.09 67.9679C3079.01 67.7933 3079.15 67.5999 3079.34 67.6266Z" fill="white"/>
<path d="M3075.37 121.559L3074.31 121.409L3075.21 115.004L3076.27 115.153L3075.37 121.559Z" fill="white"/>
<path d="M3104.94 99.1992L3098.53 98.2979L3098.68 97.2352L3105.09 98.1366L3104.94 99.1992Z" fill="white"/>
<path d="M3058.88 92.7227L3052.48 91.8213L3052.63 90.7587L3059.03 91.66L3058.88 92.7227Z" fill="white"/>
<path d="M2287.39 233.647C2287.25 231.621 2287.44 230.079 2287 228.757C2279.06 204.878 2270.98 181.049 2263.11 157.15C2261.67 152.799 2258.96 151.237 2254.7 150.569C2141.88 132.903 2029.07 115.162 1916.28 97.2781C1911.39 96.5021 1908.16 97.6128 1905.25 101.617C1890.7 121.617 1875.99 141.499 1861.38 161.457C1860.45 162.734 1859.88 164.289 1858.89 166.21C2002.11 188.751 2144.47 211.154 2287.39 233.647ZM2264.86 134.031C2265.41 130.499 2265.82 127.942 2266.22 125.385C2276.36 60.9168 2286.51 -3.55121 2296.66 -68.0192C2298.06 -76.9619 2298.06 -76.9819 2289.44 -78.3379C2177.48 -95.9632 2065.52 -113.583 1953.56 -131.201C1944.4 -132.642 1944.38 -132.631 1942.93 -123.443C1932.81 -59.1912 1922.7 5.06079 1912.59 69.3141C1911.1 78.8101 1911.11 78.8328 1920.5 80.3115C2032.25 97.9035 2144 115.491 2255.75 133.058C2258.47 133.485 2261.22 133.65 2264.86 134.031V134.031ZM2070.5 216.95C1995.65 205.17 1920.79 193.39 1845.94 181.609C1834.43 179.798 1831.96 173.509 1839.2 163.533C1852.57 145.087 1865.64 126.382 1879.83 108.599C1888.82 97.3355 1893.65 85.3608 1895.8 71.0408C1906.47 -0.189883 1917.95 -71.3019 1929.15 -142.455C1930.61 -151.734 1930.62 -151.746 1939.82 -150.298C2062.39 -131.011 2184.96 -111.721 2307.53 -92.4286C2316.94 -90.9472 2316.94 -90.9339 2315.43 -81.3366C2303.62 -6.30189 2291.73 68.7221 2280.16 143.793C2279.37 148.903 2279.94 154.695 2281.51 159.619C2289.66 185.039 2298.52 210.218 2306.64 235.643C2308 239.903 2307.35 245.007 2306.81 249.626C2306.65 251.029 2303.87 252.746 2302.04 253.169C2300.08 253.619 2297.83 252.723 2295.71 252.39C2220.64 240.579 2145.57 228.765 2070.5 216.95" fill="white"/>
<path d="M2079.33 159.756C2129.33 167.625 2179.33 175.495 2229.34 183.363C2230.82 183.596 2232.34 184.137 2233.78 183.964C2235.24 183.788 2237.67 183.103 2237.82 182.289C2238.09 180.888 2237.33 178.704 2236.24 177.787C2234.88 176.644 2232.79 176.184 2230.94 175.892C2130.73 160.079 2030.51 144.32 1930.31 128.511C1926.6 127.927 1923.06 127.964 1922.14 132.251C1921.98 133.012 1926.27 135.54 1928.71 135.932C1978.9 143.989 2029.12 151.853 2079.33 159.756ZM2076.68 176.423C2020.3 167.551 1963.92 158.683 1907.55 149.789C1905.01 149.389 1902.32 149.192 1900.04 148.145C1896.26 146.412 1894.32 143.553 1897.1 139.28C1902.68 130.732 1908 121.995 1913.97 113.741C1915.42 111.74 1918.9 110.947 1921.61 110.299C1923.36 109.879 1925.4 110.716 1927.31 111.016C2031.37 127.391 2135.43 143.845 2239.53 159.989C2247.12 161.165 2251.53 163.777 2253.04 171.787C2254.56 179.868 2257.29 187.704 2259.34 195.688C2260.71 201.02 2258.32 204.029 2252.83 203.976C2250.7 203.956 2248.57 203.469 2246.45 203.136C2189.86 194.236 2133.27 185.329 2076.68 176.423Z" fill="white"/>
<path d="M4018.06 2588.32C4017.91 2586.29 4018.1 2584.75 4017.66 2583.42C4009.72 2559.55 4001.65 2535.72 3993.77 2511.82C3992.34 2507.47 3989.63 2505.9 3985.37 2505.24C3872.54 2487.57 3759.73 2469.83 3646.95 2451.95C3642.05 2451.17 3638.83 2452.28 3635.92 2456.28C3621.37 2476.28 3606.66 2496.17 3592.05 2516.12C3591.11 2517.4 3590.55 2518.96 3589.55 2520.88C3732.78 2543.42 3875.13 2565.82 4018.06 2588.32ZM3995.52 2488.7C3996.08 2485.17 3996.48 2482.61 3996.88 2480.05C4007.03 2415.58 4017.18 2351.12 4027.32 2286.65C4028.73 2277.71 4028.73 2277.69 4020.11 2276.33C3908.15 2258.7 3796.19 2241.08 3684.22 2223.47C3675.06 2222.03 3675.04 2222.04 3673.6 2231.22C3663.48 2295.48 3653.37 2359.73 3643.26 2423.98C3641.77 2433.48 3641.77 2433.5 3651.16 2434.98C3762.91 2452.57 3874.66 2470.16 3986.42 2487.73C3989.13 2488.15 3991.89 2488.32 3995.52 2488.7V2488.7ZM3801.17 2571.62C3726.31 2559.84 3651.46 2548.06 3576.6 2536.28C3565.1 2534.47 3562.63 2528.18 3569.86 2518.2C3583.23 2499.76 3596.31 2481.05 3610.5 2463.27C3619.48 2452 3624.31 2440.03 3626.46 2425.71C3637.14 2354.48 3648.62 2283.37 3659.82 2212.21C3661.28 2202.93 3661.29 2202.92 3670.49 2204.37C3793.06 2223.66 3915.63 2242.95 4038.19 2262.24C4047.6 2263.72 4047.6 2263.73 4046.09 2273.33C4034.28 2348.37 4022.4 2423.39 4010.83 2498.46C4010.04 2503.57 4010.6 2509.36 4012.18 2514.29C4020.32 2539.71 4029.18 2564.89 4037.31 2590.31C4038.67 2594.57 4038.02 2599.68 4037.48 2604.29C4037.31 2605.7 4034.54 2607.41 4032.71 2607.84C4030.75 2608.29 4028.49 2607.39 4026.37 2607.06C3951.31 2595.25 3876.24 2583.43 3801.17 2571.62" fill="white"/>
<path d="M3880.95 264.963C3868.47 268.363 3855.95 271.588 3843.44 274.845C3819.87 280.983 3798.27 271.1 3789.96 248.191L3777.14 197.796C3773.83 177.036 3787.7 157.665 3807.88 151.724C3814.79 149.688 3821.81 148.025 3828.77 146.184C3835.54 144.397 3842.27 142.504 3849.07 140.859C3872.78 135.124 3895.79 148.859 3902.1 172.488C3905.55 185.389 3908.96 198.301 3912.29 211.232C3918.46 235.163 3904.9 258.435 3880.95 264.963ZM3917.11 188.648C3917.31 188.596 3916.92 188.695 3917.11 188.643C3915.28 181.673 3913.53 174.68 3911.59 167.737C3904.43 141.989 3878.2 124.755 3851.89 129.793C3835.08 133.013 3818.39 137.443 3802.12 142.783C3777.26 150.944 3762.19 175.328 3766.68 201.116L3780.24 252.717C3788.53 276.259 3811.9 290.556 3836.55 286.571C3855.05 283.579 3873.52 278.695 3891.13 272.248C3913.61 264.012 3926.51 241.971 3924.03 218.309C3922.98 208.319 3919.7 198.476 3917.11 188.648" fill="white"/>
<path d="M3855.63 199.772C3857.65 207.932 3867.94 220.067 3878.31 224.289C3885.06 227.036 3890.87 225.208 3894.75 219.12C3899.65 211.412 3896.62 201.264 3888.48 195.272C3885.42 193.015 3882.56 189.347 3881.49 185.761C3879.79 180.067 3876.7 175.597 3871.27 175.073C3867.26 174.688 3862.22 176.557 3858.94 179.1C3853.35 183.439 3853.52 190.143 3855.63 199.772ZM3845.21 202.319C3841.13 186.615 3844.52 175.5 3854.06 168.26C3867.26 158.247 3886.2 164.383 3891.27 180.107C3892.08 182.632 3893.9 185.236 3895.99 186.883C3908.38 196.684 3911.8 213.921 3903.44 225.968C3896.68 235.725 3886.03 239.331 3874.99 234.803C3859.03 228.252 3849.48 215.827 3845.21 202.319Z" fill="white"/>
<path d="M3825.33 236.411C3822.24 241.456 3818.11 244.802 3811.78 243.915C3805.48 243.032 3800.16 238.59 3799.49 231.942C3799.01 227.188 3800.7 222.214 3801.45 217.34C3801.91 214.33 3803.33 211.119 3802.71 208.354C3800.54 198.568 3802.86 191.676 3809.93 189.346C3817.29 186.918 3825.75 191.487 3829.24 199.787C3829.73 200.958 3830.15 202.158 3830.55 203.214C3833.03 215.05 3831.62 226.123 3825.33 236.411ZM3839.8 196.36C3835.47 184.436 3823.8 176.715 3811.71 177.703C3801.52 178.536 3791.8 186.304 3791.18 197.012C3790.6 206.972 3788.62 216.659 3787.86 226.474C3786.77 240.418 3795.32 251.25 3807.93 254.447C3819.45 257.366 3829.42 252.179 3836.32 239.404C3842.83 227.348 3844.21 214.558 3841.11 201.27C3840.68 199.631 3840.38 197.946 3839.8 196.36" fill="white"/>
<path d="M918.541 2383.34C909.784 2381.08 901.057 2378.69 892.327 2376.33C875.88 2371.89 866.184 2358.4 869.08 2341.6L878.768 2306.54C883.951 2292.78 899.096 2285.82 913.413 2289.2C918.317 2290.36 923.159 2291.79 928.031 2293.08C932.759 2294.34 937.508 2295.53 942.208 2296.89C958.601 2301.62 967.815 2317.94 963.457 2334.49C961.077 2343.52 958.672 2352.55 956.213 2361.56C951.661 2378.24 935.357 2387.68 918.541 2383.34ZM966.973 2349.51C967.109 2349.55 966.839 2349.47 966.975 2349.51C968.277 2344.64 969.64 2339.78 970.873 2334.9C975.448 2316.77 965.487 2297.2 947.759 2291.14C936.428 2287.27 924.752 2284.17 913.017 2281.78C895.085 2278.11 877.475 2287.7 871.26 2304.93L861.603 2340.97C858.48 2358.15 867.72 2374.94 884.077 2381.07C896.356 2385.67 909.269 2389.1 922.2 2391.29C938.717 2394.08 954.197 2385.17 960.892 2369.93C963.719 2363.5 965.137 2356.38 966.973 2349.51" fill="white"/>
<path d="M925.768 2334.95C924.161 2340.61 926.206 2351.55 931.044 2357.71C934.19 2361.72 938.354 2362.63 942.82 2360.27C948.473 2357.29 950.152 2350.07 947.284 2343.61C946.204 2341.18 945.741 2337.96 946.334 2335.41C947.277 2331.36 946.952 2327.57 943.829 2325.37C941.53 2323.75 937.817 2323.13 934.944 2323.54C930.041 2324.24 927.824 2328.37 925.768 2334.95ZM918.553 2332.89C921.52 2321.93 927.433 2316.36 935.74 2315.27C947.229 2313.76 956.612 2324.05 954.237 2335.36C953.856 2337.18 954.058 2339.39 954.753 2341.12C958.885 2351.37 954.985 2363.03 945.73 2367.45C938.236 2371.03 930.516 2369.53 925.382 2362.95C917.954 2353.43 916.465 2342.58 918.553 2332.89" fill="white"/>
<path d="M894.651 2346.7C891.027 2348.69 887.36 2349.3 883.82 2346.56C880.301 2343.84 878.605 2339.3 880.503 2335.03C881.86 2331.97 884.615 2329.54 886.756 2326.83C888.079 2325.16 890.055 2323.71 890.64 2321.81C892.713 2315.11 896.513 2311.73 901.617 2312.77C906.932 2313.85 910.488 2319.56 909.725 2325.81C909.619 2326.69 909.459 2327.56 909.339 2328.35C906.737 2336.39 902.041 2342.63 894.651 2346.7ZM917.332 2327.39C918.832 2318.64 914.423 2309.9 906.733 2306.31C900.255 2303.29 891.656 2304.63 887.567 2310.92C883.764 2316.78 879.2 2321.97 875.333 2327.67C869.84 2335.77 871.275 2345.31 877.831 2351.63C883.817 2357.39 891.672 2357.7 900.293 2352.33C908.428 2347.26 913.699 2339.97 916.428 2330.83C916.735 2329.68 917.133 2328.55 917.332 2327.39" fill="white"/>
<path d="M213.374 2271.88C219.156 2237.94 224.816 2203.98 230.833 2170.08C231.905 2164.04 230.714 2161.49 224.266 2160.48C198.82 2156.47 173.46 2151.93 148.057 2147.65C138.825 2146.09 137.192 2147.27 135.61 2156.53C124.413 2222.15 113.236 2287.77 102.076 2353.39C100.489 2362.73 101.633 2364.41 110.753 2365.98C136.141 2370.35 161.573 2374.47 186.913 2379.1C193.165 2380.24 195.374 2378.6 196.385 2372.37C201.826 2338.84 207.669 2305.37 213.374 2271.88ZM328.07 2284.38C327.656 2286.82 327.241 2289.25 326.826 2291.68C321.272 2324.29 315.736 2356.91 310.153 2389.51C307.565 2404.62 299.637 2410.67 284.466 2408.13C225.668 2398.27 166.893 2388.27 108.153 2378.08C92.7462 2375.4 87.6275 2367.46 90.2502 2352.05C101.496 2285.92 112.758 2219.79 124.044 2153.67C126.6 2138.7 134.122 2132.79 149.105 2135.29C208.138 2145.13 267.136 2155.19 326.105 2165.42C340.885 2167.98 346.397 2176.41 343.961 2191.05C342.34 2200.79 339.982 2210.47 339.177 2220.28C338.325 2230.64 330.577 2237.46 322.142 2244.7C322.348 2240.7 323.509 2237.2 323.916 2234.75C326.42 2219.56 329.096 2204.4 331.601 2189.22C333.022 2180.61 331.892 2178.98 323.473 2177.53C297.84 2173.11 272.169 2168.9 246.568 2164.31C240.94 2163.3 238.766 2164.9 237.825 2170.49C226.389 2238.45 214.821 2306.39 203.104 2374.3C202.113 2380.04 203.949 2382.01 209.452 2382.9C235.128 2387.06 260.745 2391.58 286.396 2395.9C294.697 2397.29 296.345 2396.09 297.837 2387.44C302.68 2359.37 307.644 2331.31 312.097 2303.18C313.581 2293.8 319.894 2288.85 326.128 2283.46C326.776 2283.76 327.422 2284.07 328.07 2284.38" fill="white"/>
<path d="M369.364 2229.01C366.73 2232.43 365.054 2235.08 362.921 2237.3C329.952 2271.55 297.108 2305.94 263.757 2339.82C256.686 2347.01 247.777 2352.41 239.532 2358.39C238.405 2359.21 235.349 2359.24 234.716 2358.43C233.718 2357.17 233.265 2354.56 233.896 2353.08C239.246 2340.55 247.104 2329.86 256.748 2320.06C287.844 2288.47 318.478 2256.42 349.16 2224.42C352.509 2220.93 358.374 2219.26 358.204 2212.74C358.184 2211.98 362.433 2209.99 363.1 2210.53C367.782 2214.35 372.201 2218.54 376.264 2223.01C376.825 2223.63 375.432 2227.06 374.096 2228.07C372.692 2229.14 370.269 2228.87 369.364 2229.01Z" fill="white"/>
<path d="M220.563 2333.85C219.054 2330.46 219.647 2326.49 222.088 2323.69C224.828 2320.54 227.316 2317.68 230.268 2315.41C238.272 2309.28 247.259 2304.39 255.107 2298.08C267.258 2288.31 267.422 2280 256.706 2268.52C252.163 2263.65 247.051 2259.23 243.048 2253.96C235.083 2243.47 236.576 2232.89 247.992 2226.52C255.596 2222.27 264.611 2220.42 273.155 2218.08C274.839 2217.62 277.26 2219.84 279.342 2220.82C277.563 2222.11 275.959 2223.91 273.971 2224.58C266.852 2227 259.174 2228.18 252.506 2231.44C243.674 2235.77 242.579 2243.06 248.867 2250.7C252.792 2255.46 257.566 2259.53 261.884 2263.99C274.876 2277.38 274.682 2290.53 260.436 2302.44C252.72 2308.89 243.755 2313.83 235.667 2319.87C232.306 2322.38 228.931 2325.58 227.2 2329.25C226.336 2331.07 229.391 2334.57 230.235 2337.44C230.744 2339.18 230.414 2341.16 230.46 2343.03C228.578 2343.03 225.492 2343.72 225.014 2342.9C223.382 2340.11 222.028 2337.15 220.563 2333.85Z" fill="white"/>
<path d="M1260.36 150.658C1258.81 131.931 1257.19 113.209 1255.77 94.471C1255.51 91.133 1254.54 89.9473 1250.99 90.2866C1237 91.6252 1222.97 92.6649 1208.96 93.8505C1203.87 94.2816 1203.17 95.1279 1203.59 100.238C1206.58 136.445 1209.58 172.651 1212.59 208.856C1213.02 214.005 1213.85 214.739 1218.88 214.331C1232.9 213.195 1246.9 211.922 1260.92 210.928C1264.39 210.683 1265.33 209.513 1265.02 206.084C1263.34 187.619 1261.89 169.135 1260.36 150.658ZM1322.69 141.695C1322.8 143.038 1322.91 144.381 1323.02 145.724C1324.51 163.717 1326.01 181.708 1327.49 199.702C1328.17 208.043 1324.8 212.315 1316.43 213.03C1284.01 215.803 1251.59 218.496 1219.15 221.078C1210.64 221.755 1206.86 218.255 1206.15 209.748C1203.12 173.265 1200.1 136.781 1197.09 100.296C1196.41 92.0345 1199.58 87.8887 1207.84 87.1755C1240.38 84.3632 1272.94 81.6743 1305.5 79.0731C1313.66 78.4211 1317.72 82.128 1318.42 90.1988C1318.88 95.5698 1318.95 101.006 1319.86 106.3C1320.81 111.893 1317.64 116.552 1314.17 121.525C1313.73 119.382 1313.87 117.375 1313.75 116.021C1313.02 107.653 1312.37 99.2767 1311.64 90.9091C1311.22 86.1684 1310.4 85.4611 1305.75 85.8369C1291.6 86.9792 1277.46 88.2388 1263.3 89.2874C1260.19 89.5182 1259.26 90.6546 1259.52 93.741C1262.7 131.219 1265.81 168.703 1268.83 206.193C1269.09 209.361 1270.33 210.156 1273.36 209.88C1287.49 208.59 1301.65 207.501 1315.79 206.302C1320.37 205.913 1321.08 205.053 1320.69 200.277C1319.44 184.782 1318.26 169.278 1316.8 153.802C1316.31 148.643 1318.97 145.165 1321.53 141.469C1321.92 141.544 1322.3 141.62 1322.69 141.695" fill="white"/>
<path d="M1337 106.823C1336.07 108.986 1335.55 110.615 1334.72 112.076C1321.94 134.662 1309.25 157.296 1296.21 179.736C1293.45 184.493 1289.48 188.561 1285.93 192.839C1285.45 193.424 1283.83 193.856 1283.39 193.518C1282.69 192.984 1282.1 191.668 1282.23 190.8C1283.36 183.445 1286.06 176.728 1289.83 170.239C1301.98 149.318 1313.82 128.218 1325.7 107.139C1326.99 104.838 1329.87 103.16 1328.89 99.734C1328.78 99.3384 1330.75 97.7079 1331.18 97.9042C1334.17 99.2871 1337.08 100.903 1339.83 102.715C1340.21 102.966 1339.94 104.966 1339.37 105.683C1338.78 106.438 1337.46 106.624 1337 106.823Z" fill="white"/>
<path d="M1272.57 182.443C1271.31 180.852 1271.09 178.674 1272 176.862C1273.02 174.829 1273.95 172.976 1275.2 171.379C1278.6 167.048 1282.68 163.246 1285.98 158.845C1291.07 152.032 1290.03 147.614 1282.81 142.999C1279.75 141.042 1276.44 139.398 1273.61 137.157C1267.98 132.695 1267.33 126.9 1272.5 121.981C1275.94 118.704 1280.46 116.5 1284.66 114.104C1285.49 113.632 1287.07 114.475 1288.3 114.712C1287.53 115.633 1286.93 116.803 1285.97 117.43C1282.54 119.677 1278.64 121.338 1275.56 123.971C1271.47 127.458 1271.88 131.457 1276.25 134.642C1278.97 136.63 1282.04 138.132 1284.93 139.901C1293.62 145.22 1295.3 152.197 1289.39 160.425C1286.18 164.882 1282.11 168.711 1278.66 173.001C1277.22 174.783 1275.87 176.936 1275.45 179.106C1275.25 180.19 1277.34 181.625 1278.17 183.027C1278.68 183.876 1278.77 184.969 1279.05 185.951C1278.05 186.205 1276.52 186.991 1276.15 186.622C1274.91 185.366 1273.79 183.986 1272.57 182.443Z" fill="white"/>
<path d="M3308.28 2109.38C3305 2069.8 3301.58 2030.23 3298.58 1990.63C3298.04 1983.57 3295.98 1981.07 3288.49 1981.78C3258.91 1984.61 3229.27 1986.81 3199.66 1989.32C3188.9 1990.23 3187.42 1992.02 3188.31 2002.82C3194.62 2079.34 3200.96 2155.86 3207.32 2232.38C3208.22 2243.26 3209.99 2244.81 3220.63 2243.95C3250.24 2241.55 3279.84 2238.86 3309.48 2236.76C3316.79 2236.24 3318.79 2233.77 3318.13 2226.52C3314.59 2187.5 3311.52 2148.43 3308.28 2109.38ZM3440.01 2090.43C3440.25 2093.27 3440.48 2096.11 3440.72 2098.95C3443.87 2136.98 3447.04 2175 3450.16 2213.03C3451.6 2230.66 3444.48 2239.69 3426.8 2241.2C3358.28 2247.06 3289.74 2252.75 3221.19 2258.21C3203.21 2259.64 3195.22 2252.24 3193.72 2234.27C3187.31 2157.16 3180.92 2080.05 3174.56 2002.94C3173.12 1985.48 3179.83 1976.72 3197.29 1975.21C3266.07 1969.27 3334.87 1963.58 3403.68 1958.08C3420.93 1956.71 3429.51 1964.54 3430.99 1981.6C3431.97 1992.95 3432.11 2004.44 3434.03 2015.63C3436.05 2027.45 3429.35 2037.29 3422 2047.81C3421.09 2043.28 3421.38 2039.03 3421.13 2036.17C3419.57 2018.49 3418.21 2000.79 3416.65 1983.1C3415.77 1973.08 3414.04 1971.59 3404.22 1972.38C3374.31 1974.79 3344.42 1977.46 3314.5 1979.67C3307.93 1980.16 3305.96 1982.56 3306.51 1989.09C3313.23 2068.29 3319.8 2147.51 3326.19 2226.75C3326.73 2233.45 3329.35 2235.13 3335.75 2234.54C3365.63 2231.82 3395.55 2229.52 3425.44 2226.98C3435.12 2226.16 3436.62 2224.34 3435.8 2214.25C3433.16 2181.5 3430.66 2148.73 3427.56 2116.02C3426.53 2105.12 3432.16 2097.77 3437.58 2089.96C3438.39 2090.12 3439.2 2090.28 3440.01 2090.43" fill="white"/>
<path d="M3470.26 2016.73C3468.3 2021.3 3467.19 2024.75 3465.44 2027.84C3438.43 2075.57 3411.6 2123.41 3384.06 2170.83C3378.22 2180.89 3369.82 2189.48 3362.33 2198.53C3361.3 2199.76 3357.9 2200.68 3356.96 2199.96C3355.48 2198.83 3354.23 2196.05 3354.51 2194.22C3356.89 2178.67 3362.6 2164.48 3370.56 2150.76C3396.24 2106.54 3421.27 2061.95 3446.37 2017.4C3449.11 2012.54 3455.19 2008.99 3453.12 2001.75C3452.88 2000.91 3457.06 1997.47 3457.96 1997.88C3464.29 2000.8 3470.43 2004.22 3476.25 2008.05C3477.05 2008.58 3476.48 2012.81 3475.28 2014.32C3474.02 2015.92 3471.23 2016.31 3470.26 2016.73Z" fill="white"/>
<path d="M3334.09 2176.55C3331.43 2173.19 3330.96 2168.59 3332.88 2164.76C3335.04 2160.46 3337 2156.55 3339.65 2153.17C3346.83 2144.02 3355.47 2135.98 3362.42 2126.68C3373.2 2112.28 3371 2102.94 3355.73 2093.19C3349.26 2089.05 3342.28 2085.58 3336.29 2080.84C3324.38 2071.41 3323.02 2059.16 3333.94 2048.77C3341.22 2041.84 3350.76 2037.19 3359.64 2032.12C3361.39 2031.12 3364.73 2032.9 3367.33 2033.4C3365.72 2035.35 3364.44 2037.82 3362.41 2039.15C3355.15 2043.9 3346.91 2047.41 3340.4 2052.97C3331.77 2060.34 3332.64 2068.79 3341.86 2075.53C3347.61 2079.73 3354.11 2082.9 3360.21 2086.64C3378.57 2097.88 3382.13 2112.63 3369.63 2130.02C3362.86 2139.44 3354.26 2147.53 3346.96 2156.6C3343.92 2160.36 3341.07 2164.91 3340.19 2169.5C3339.75 2171.79 3344.16 2174.82 3345.93 2177.79C3347 2179.58 3347.2 2181.89 3347.78 2183.97C3345.68 2184.5 3342.43 2186.16 3341.66 2185.39C3339.04 2182.73 3336.68 2179.82 3334.09 2176.55Z" fill="white"/>
<path d="M-349.845 818.146L320.78 210.245L508.731 433.302C514.672 441.661 516.798 452.186 514.554 462.202C512.301 472.275 505.839 480.925 496.819 485.944L496.575 486.087L-38.7832 828.315L486.55 1134.56C498.441 1141.49 506.691 1153.23 509.192 1166.77C511.688 1180.31 508.17 1194.22 499.541 1204.94L305.875 1445.45L-349.845 818.146Z" fill="#A096C9"/>
<path d="M321.228 203.593L-356.607 818.031L306.315 1452.22L503.129 1207.8C523.009 1183.11 516.255 1146.52 488.869 1130.55L-29.9456 828.108L499.059 489.947C520.387 478.078 526.61 450.274 512.371 430.447L321.228 203.593ZM320.336 216.84L505.078 436.096C510.188 443.372 512.002 452.488 510.058 461.169C508.092 469.958 502.447 477.513 494.579 481.892L494.331 482.027L494.096 482.179L-34.9079 820.345L-47.6247 828.469L-34.5861 836.071L484.228 1138.52C494.957 1144.78 502.403 1155.37 504.66 1167.58C506.913 1179.79 503.738 1192.35 495.949 1202.02L305.436 1438.62L-343.082 818.213L320.336 216.84Z" fill="#5BC5F2"/>
<path d="M-366.207 837.151L-356.608 846.75C-345.853 857.505 -328.257 857.505 -317.506 846.75L321.227 242.689C331.982 231.933 331.982 214.337 321.227 203.582L296.715 174.229C285.964 163.474 268.363 163.474 257.608 174.229L-366.207 798.044C-376.962 808.8 -376.962 826.396 -366.207 837.151Z" fill="#5BC5F2"/>
<path d="M-356.608 789.315L-366.207 798.913C-376.962 809.669 -376.962 827.265 -366.207 838.016L257.612 1461.84C268.363 1472.59 295.563 1462.99 306.314 1452.24L334.391 1418.28C345.147 1407.53 345.147 1389.93 334.391 1379.18L-317.501 789.315C-328.257 778.559 -345.853 778.559 -356.608 789.315Z" fill="#5BC5F2"/>
<path d="M307.103 351.436C306.738 362.414 304.555 373.547 300.423 384.403C294.347 400.521 284.71 414.212 272.758 425.023C244.576 450.496 203.468 459.69 165.479 445.351C111.415 424.902 84.12 364.519 104.569 310.411C124.98 256.343 185.406 229.052 239.509 249.502C282.722 265.824 308.847 307.658 307.103 351.436Z" fill="white"/>
<path d="M307.109 351.452C306.744 362.429 304.561 373.563 300.429 384.418C294.353 400.536 284.716 414.227 272.764 425.039C269.363 424.63 265.923 423.821 262.561 422.53C240.45 414.184 229.312 389.481 237.654 367.37C245.995 345.255 270.703 334.121 292.814 342.463C298.32 344.528 303.143 347.647 307.109 351.452Z" fill="black"/>
<path d="M500.241 520.687C500.037 526.889 498.797 533.182 496.466 539.314C493.035 548.421 487.585 556.158 480.836 562.269C464.909 576.66 441.68 581.857 420.213 573.755C389.665 562.199 374.243 528.08 385.799 497.506C397.333 466.954 431.473 451.532 462.047 463.087C486.463 472.312 501.224 495.949 500.241 520.687Z" fill="white"/>
<path d="M500.246 520.723C500.042 526.925 498.802 533.218 496.471 539.35C493.04 548.457 487.59 556.194 480.84 562.305C478.918 562.074 476.974 561.618 475.074 560.883C462.579 556.168 456.285 542.212 461 529.717C465.714 517.222 479.675 510.929 492.166 515.643C495.279 516.809 498.002 518.57 500.246 520.723Z" fill="black"/>
<path d="M856.655 1658.89L744.462 1557.19L713.018 1594.51C712.024 1595.9 711.668 1597.67 712.043 1599.34C712.42 1601.03 713.502 1602.47 715.011 1603.31L715.051 1603.34L804.615 1660.59L716.728 1711.83C714.739 1712.99 713.359 1714.95 712.941 1717.21C712.523 1719.48 713.112 1721.81 714.555 1723.6L746.955 1763.84L856.655 1658.89Z" fill="#A096C9"/>
<path d="M744.386 1556.08L857.786 1658.87L746.881 1764.97L713.954 1724.08C710.628 1719.95 711.758 1713.83 716.34 1711.15L803.136 1660.56L714.635 1603.98C711.067 1602 710.026 1597.35 712.408 1594.03L744.386 1556.08ZM744.535 1558.29L713.628 1594.97C712.773 1596.19 712.47 1597.72 712.795 1599.17C713.124 1600.64 714.069 1601.9 715.385 1602.63L715.426 1602.66L715.466 1602.68L803.967 1659.26L806.094 1660.62L803.913 1661.89L717.116 1712.49C715.321 1713.53 714.076 1715.31 713.698 1717.35C713.321 1719.39 713.852 1721.49 715.156 1723.11L747.028 1762.69L855.523 1658.9L744.535 1558.29Z" fill="#5BC5F2"/>
<path d="M859.393 1662.07L857.787 1663.68C855.988 1665.48 853.044 1665.48 851.245 1663.68L744.387 1562.62C742.587 1560.82 742.587 1557.88 744.387 1556.08L748.487 1551.17C750.286 1549.37 753.231 1549.37 755.03 1551.17L859.393 1655.53C861.192 1657.33 861.192 1660.27 859.393 1662.07Z" fill="#5BC5F2"/>
<path d="M857.787 1654.07L859.393 1655.67C861.192 1657.47 861.192 1660.42 859.393 1662.22L755.029 1766.58C753.231 1768.38 748.68 1766.77 746.882 1764.97L742.184 1759.29C740.385 1757.49 740.385 1754.55 742.184 1752.75L851.244 1654.07C853.044 1652.27 855.988 1652.27 857.787 1654.07Z" fill="#5BC5F2"/>
<path d="M804.195 1660.53L851.569 1658.88" stroke="#5BC5F2" stroke-width="1.41333" stroke-miterlimit="10"/>
<path d="M746.749 1580.81C746.81 1582.65 747.175 1584.51 747.867 1586.33C748.883 1589.02 750.495 1591.31 752.495 1593.12C757.21 1597.38 764.087 1598.92 770.442 1596.52C779.487 1593.1 784.054 1583 780.632 1573.95C777.218 1564.9 767.109 1560.34 758.057 1563.76C750.828 1566.49 746.457 1573.49 746.749 1580.81Z" fill="white"/>
<path d="M746.749 1580.81C746.81 1582.65 747.175 1584.51 747.867 1586.33C748.883 1589.03 750.495 1591.32 752.495 1593.12C753.064 1593.06 753.639 1592.92 754.202 1592.71C757.901 1591.31 759.764 1587.18 758.369 1583.48C756.973 1579.78 752.84 1577.91 749.141 1579.31C748.22 1579.66 747.413 1580.18 746.749 1580.81Z" fill="black"/>
<path d="M714.438 1609.12C714.472 1610.16 714.679 1611.21 715.069 1612.24C715.643 1613.76 716.555 1615.06 717.684 1616.08C720.349 1618.49 724.235 1619.36 727.826 1618C732.937 1616.07 735.517 1610.36 733.584 1605.24C731.654 1600.13 725.942 1597.55 720.827 1599.49C716.743 1601.03 714.273 1604.98 714.438 1609.12Z" fill="white"/>
<path d="M714.438 1609.13C714.472 1610.17 714.68 1611.22 715.07 1612.25C715.644 1613.77 716.555 1615.06 717.684 1616.09C718.006 1616.05 718.331 1615.97 718.649 1615.85C720.74 1615.06 721.792 1612.72 721.004 1610.63C720.215 1608.54 717.879 1607.49 715.79 1608.28C715.269 1608.47 714.813 1608.77 714.438 1609.13Z" fill="black"/>
<path d="M3423.21 1396.62L3571.24 1312.3L3596.66 1360.96C3597.41 1362.74 3597.38 1364.76 3596.55 1366.51C3595.73 1368.26 3594.19 1369.59 3592.33 1370.14L3592.28 1370.16L3479.94 1411.18L3563.96 1488.89C3565.86 1490.65 3566.9 1493.15 3566.81 1495.74C3566.71 1498.33 3565.5 1500.74 3563.48 1502.36L3518.08 1538.64L3423.21 1396.62Z" fill="#A096C9"/>
<path d="M3571.59 1311.1L3421.97 1396.32L3517.88 1539.9L3564.02 1503.03C3568.68 1499.3 3568.93 1492.3 3564.55 1488.25L3481.58 1411.51L3592.57 1370.97C3596.98 1369.66 3599.26 1364.81 3597.45 1360.58L3571.59 1311.1ZM3570.89 1313.5L3595.88 1361.32C3596.52 1362.87 3596.48 1364.62 3595.77 1366.13C3595.05 1367.67 3593.7 1368.82 3592.08 1369.31L3592.03 1369.32L3591.98 1369.34L3480.98 1409.88L3478.31 1410.85L3480.4 1412.78L3563.37 1489.53C3565.09 1491.11 3566.02 1493.37 3565.94 1495.7C3565.86 1498.04 3564.76 1500.21 3562.93 1501.67L3518.27 1537.37L3424.45 1396.91L3570.89 1313.5Z" fill="#5BC5F2"/>
<path d="M3419.42 1399.44L3420.8 1401.6C3422.33 1404.01 3425.57 1404.73 3427.98 1403.19L3569.99 1318.28C3572.41 1316.75 3573.13 1313.51 3571.59 1311.1L3568.29 1304.71C3566.75 1302.29 3563.52 1301.57 3561.1 1303.11L3421.02 1392.26C3418.61 1393.79 3417.89 1397.03 3419.42 1399.44Z" fill="#5BC5F2"/>
<path d="M3423.14 1391.05L3420.98 1392.42C3418.57 1393.96 3417.85 1397.19 3419.39 1399.6L3508.54 1539.68C3510.07 1542.1 3515.46 1541.45 3517.88 1539.91L3524.42 1534.82C3526.84 1533.28 3527.56 1530.05 3526.02 1527.63L3430.33 1392.64C3428.79 1390.23 3425.56 1389.51 3423.14 1391.05Z" fill="#5BC5F2"/>
<path d="M3480.42 1411.22L3428.8 1397.84" stroke="#5BC5F2" stroke-width="1.41333" stroke-miterlimit="10"/>
<path d="M3562.96 1337.69C3562.44 1339.69 3561.59 1341.65 3560.39 1343.47C3558.61 1346.19 3556.28 1348.31 3553.65 1349.81C3547.43 1353.34 3539.5 1353.35 3533.1 1349.16C3524.01 1343.2 3521.46 1330.99 3527.42 1321.88C3533.38 1312.78 3545.6 1310.24 3554.7 1316.2C3561.97 1320.97 3565.07 1329.72 3562.96 1337.69Z" fill="white"/>
<path d="M3562.96 1337.69C3562.44 1339.69 3561.59 1341.64 3560.39 1343.47C3558.61 1346.18 3556.28 1348.31 3553.65 1349.8C3553.04 1349.59 3552.44 1349.3 3551.87 1348.93C3548.15 1346.49 3547.11 1341.5 3549.55 1337.78C3551.98 1334.05 3556.98 1333.02 3560.7 1335.45C3561.63 1336.06 3562.39 1336.82 3562.96 1337.69Z" fill="black"/>
<path d="M3591.54 1376.66C3591.25 1377.8 3590.76 1378.9 3590.08 1379.93C3589.08 1381.47 3587.76 1382.66 3586.27 1383.51C3582.76 1385.51 3578.28 1385.51 3574.67 1383.15C3569.53 1379.78 3568.09 1372.88 3571.46 1367.73C3574.82 1362.59 3581.72 1361.15 3586.87 1364.52C3590.98 1367.21 3592.73 1372.16 3591.54 1376.66Z" fill="white"/>
<path d="M3591.54 1376.67C3591.24 1377.8 3590.76 1378.91 3590.08 1379.94C3589.08 1381.47 3587.76 1382.67 3586.27 1383.52C3585.93 1383.4 3585.59 1383.23 3585.27 1383.02C3583.17 1381.65 3582.58 1378.82 3583.96 1376.72C3585.33 1374.62 3588.16 1374.03 3590.26 1375.41C3590.78 1375.75 3591.21 1376.18 3591.54 1376.67Z" fill="black"/>
<path d="M2800.53 157.885L2689.21 94.4758L2670.08 131.067C2669.52 132.404 2669.55 133.924 2670.17 135.239C2670.79 136.562 2671.95 137.559 2673.35 137.975L2673.38 137.988L2757.86 168.839L2694.68 227.283C2693.25 228.606 2692.47 230.481 2692.54 232.428C2692.61 234.376 2693.52 236.19 2695.04 237.406L2729.19 264.693L2800.53 157.885Z" fill="#A096C9"/>
<path d="M2688.94 93.5686L2801.47 157.659L2729.34 265.641L2694.64 237.91C2691.13 235.109 2690.94 229.846 2694.24 226.799L2756.64 169.08L2673.16 138.595C2669.85 137.61 2668.14 133.959 2669.49 130.782L2688.94 93.5686ZM2689.47 95.3717L2670.68 131.339C2670.19 132.501 2670.22 133.817 2670.76 134.957C2671.3 136.111 2672.31 136.981 2673.53 137.345L2673.57 137.356L2673.61 137.37L2757.09 167.855L2759.09 168.587L2757.52 170.038L2695.12 227.757C2693.83 228.951 2693.13 230.643 2693.19 232.4C2693.25 234.157 2694.08 235.794 2695.45 236.891L2729.04 263.735L2799.6 158.1L2689.47 95.3717Z" fill="#5BC5F2"/>
<path d="M2803.38 160.01L2802.35 161.631C2801.19 163.447 2798.76 163.987 2796.94 162.831L2690.14 98.9741C2688.33 97.8182 2687.78 95.3868 2688.94 93.5705L2691.43 88.7622C2692.58 86.946 2695.01 86.4057 2696.83 87.5616L2802.18 154.606C2803.99 155.762 2804.53 158.194 2803.38 160.01Z" fill="#5BC5F2"/>
<path d="M2800.58 153.696L2802.21 154.728C2804.02 155.884 2804.56 158.315 2803.41 160.131L2736.36 265.48C2735.21 267.295 2731.15 266.804 2729.34 265.648L2724.41 261.818C2722.6 260.663 2722.06 258.231 2723.21 256.415L2795.18 154.897C2796.34 153.081 2798.77 152.54 2800.58 153.696Z" fill="#5BC5F2"/>
<path d="M2757.51 168.862L2796.33 158.806" stroke="#5BC5F2" stroke-width="1.41333" stroke-miterlimit="10"/>
<path d="M2695.43 113.568C2695.82 115.074 2696.46 116.545 2697.37 117.918C2698.7 119.959 2700.45 121.555 2702.44 122.682C2707.11 125.336 2713.08 125.345 2717.88 122.197C2724.73 117.712 2726.64 108.53 2722.16 101.682C2717.68 94.8375 2708.49 92.9217 2701.64 97.4083C2696.17 100.99 2693.85 107.573 2695.43 113.568Z" fill="white"/>
<path d="M2695.43 113.565C2695.82 115.071 2696.46 116.542 2697.37 117.915C2698.7 119.956 2700.45 121.552 2702.44 122.679C2702.89 122.518 2703.34 122.3 2703.77 122.019C2706.57 120.187 2707.35 116.431 2705.52 113.632C2703.69 110.832 2699.93 110.053 2697.13 111.884C2696.43 112.338 2695.86 112.917 2695.43 113.565Z" fill="black"/>
<path d="M2673.94 142.879C2674.16 143.73 2674.52 144.561 2675.03 145.337C2675.79 146.49 2676.78 147.392 2677.9 148.029C2680.54 149.529 2683.91 149.534 2686.63 147.755C2690.49 145.22 2691.58 140.033 2689.04 136.163C2686.51 132.295 2681.32 131.212 2677.45 133.748C2674.36 135.772 2673.04 139.491 2673.94 142.879Z" fill="white"/>
<path d="M2673.94 142.886C2674.16 143.737 2674.52 144.568 2675.04 145.344C2675.79 146.497 2676.78 147.399 2677.9 148.036C2678.16 147.945 2678.41 147.822 2678.65 147.663C2680.23 146.627 2680.68 144.506 2679.64 142.924C2678.61 141.342 2676.48 140.901 2674.9 141.936C2674.51 142.193 2674.19 142.52 2673.94 142.886Z" fill="black"/>
</g>
<defs>
<clipPath id="clip0_313_2318">
<rect width="3946.67" height="2464" fill="white"/>
</clipPath>
</defs>
</svg>
