<svg width="2928" height="1776" viewBox="0 0 2928 1776" fill="none" xmlns="http://www.w3.org/2000/svg">
<path d="M324.292 192.399C324.592 194.099 323.492 195.699 321.891 195.999C320.191 196.399 318.59 195.299 318.29 193.699C317.89 191.999 318.99 190.399 320.591 189.999C322.291 189.699 323.892 190.799 324.292 192.399Z" fill="white"/>
<path fill-rule="evenodd" clip-rule="evenodd" d="M407.613 380.5L316.89 399.3C309.088 400.9 301.486 395.9 299.886 388.1L261.776 204C260.175 196.2 265.177 188.6 272.979 187L363.702 168.2C371.404 166.6 379.006 171.6 380.606 179.4L418.716 363.6C420.317 371.3 415.315 378.9 407.613 380.5V380.5ZM274.579 195C271.278 195.7 269.178 199 269.878 202.3L307.988 386.5C308.688 389.8 311.889 391.9 315.19 391.3L405.913 372.5C409.214 371.8 411.414 368.5 410.714 365.2L372.604 181C371.904 177.7 368.703 175.6 365.402 176.3L274.579 195Z" fill="white"/>
<path d="M226.767 218.102C229.567 220.802 231.768 222.702 233.568 224.802C261.276 258.602 289.083 292.302 316.29 326.402C322.091 333.702 326.092 342.402 330.594 350.602C331.194 351.702 330.894 354.502 330.093 355.002C328.893 355.702 326.492 355.902 325.192 355.102C314.289 348.902 305.387 340.502 297.485 330.702C272.078 298.902 246.172 267.502 220.365 236.002C217.564 232.602 216.664 227.002 210.663 226.502C209.962 226.402 208.662 222.302 209.162 221.802C213.163 217.902 217.464 214.302 222.066 211.102C222.666 210.702 225.666 212.302 226.367 213.602C227.267 215.002 226.667 217.202 226.767 218.102V218.102Z" fill="white"/>
<path d="M2826.54 960.399C2826.04 961.599 2824.64 962.199 2823.44 961.599C2822.14 961.099 2821.64 959.699 2822.14 958.499C2822.64 957.199 2824.04 956.699 2825.24 957.199C2826.54 957.699 2827.04 959.099 2826.54 960.399V960.399Z" fill="white"/>
<path fill-rule="evenodd" clip-rule="evenodd" d="M2796.13 1118.8L2729.21 1090.3C2723.51 1087.9 2720.91 1081.3 2723.31 1075.6L2781.13 939.9C2783.63 934.2 2790.23 931.5 2795.93 933.9L2862.75 962.4C2868.45 964.9 2871.15 971.5 2868.75 977.2L2810.83 1112.9C2808.43 1118.6 2801.83 1121.2 2796.13 1118.8V1118.8ZM2793.43 939.8C2790.93 938.8 2788.13 939.9 2787.03 942.4L2729.21 1078.1C2728.21 1080.5 2729.31 1083.4 2731.71 1084.4L2798.63 1112.9C2801.03 1113.9 2803.93 1112.8 2804.93 1110.4L2862.85 974.7C2863.85 972.2 2862.75 969.4 2860.25 968.3L2793.43 939.8Z" fill="white"/>
<path d="M2752.22 933.299C2752.82 936.299 2753.42 938.499 2753.62 940.699C2756.32 974.899 2759.12 1009 2761.42 1043.2C2761.92 1050.4 2760.62 1057.8 2759.92 1065.1C2759.82 1066.1 2758.32 1067.8 2757.62 1067.7C2756.42 1067.6 2754.82 1066.6 2754.32 1065.6C2750.12 1056.7 2748.12 1047.4 2747.42 1037.5C2745.32 1005.6 2742.72 973.799 2740.12 941.999C2739.82 938.499 2741.72 934.499 2738.11 931.499C2737.71 931.199 2738.71 927.899 2739.32 927.799C2743.62 927.099 2747.92 926.699 2752.32 926.699C2752.92 926.699 2754.12 929.099 2754.02 930.299C2753.92 931.499 2752.62 932.699 2752.22 933.299V933.299Z" fill="white"/>
<path fill-rule="evenodd" clip-rule="evenodd" d="M2049.14 398.799C2039.53 404.999 2028.33 406.699 2017.93 404.499C2007.63 402.299 1998.12 396.099 1991.92 386.499C1979.62 367.299 1985.12 341.699 2004.33 329.299C2013.93 323.099 2025.13 321.399 2035.43 323.699C2045.84 325.899 2055.34 332.099 2061.44 341.699C2073.84 360.899 2068.34 386.499 2049.14 398.799V398.799ZM2062.34 371.799C2064.34 362.299 2062.64 352.499 2057.34 344.399C2052.04 336.199 2043.94 330.599 2034.43 328.499C2024.93 326.399 2015.13 328.199 2007.03 333.499C1998.82 338.699 1993.12 346.899 1991.12 356.399C1989.02 365.899 1990.82 375.599 1996.12 383.799C2001.32 391.999 2009.53 397.599 2019.03 399.699C2028.53 401.699 2038.23 399.999 2046.44 394.699C2054.64 389.399 2060.24 381.299 2062.34 371.799Z" fill="white"/>
<path d="M2038.83 371.599L2024.93 367.199L2024.43 344.299L2028.13 344.199L2028.53 364.499L2039.93 367.999L2038.83 371.599Z" fill="white"/>
<path fill-rule="evenodd" clip-rule="evenodd" d="M2053.84 328.3L2016.33 320.2C2015.83 320.1 2015.43 319.8 2015.23 319.4C2014.93 318.9 2014.83 318.5 2014.93 318L2033.33 232.7C2033.63 231.7 2034.53 231.1 2035.53 231.3L2073.04 239.4C2073.54 239.5 2073.94 239.8 2074.24 240.2C2074.44 240.6 2074.54 241.1 2074.44 241.6L2056.04 326.9C2055.84 327.8 2054.84 328.5 2053.84 328.3V328.3ZM2018.93 317L2052.84 324.3L2070.44 242.6L2036.63 235.3L2018.93 317Z" fill="white"/>
<path fill-rule="evenodd" clip-rule="evenodd" d="M2017.33 496.9L1979.82 488.8C1978.82 488.6 1978.22 487.6 1978.42 486.7L1996.92 401.4C1997.02 400.9 1997.32 400.5 1997.72 400.2C1998.12 400 1998.62 399.9 1999.02 400L2036.53 408.1C2037.53 408.3 2038.23 409.3 2037.93 410.3L2019.53 495.5C2019.43 496 2019.13 496.4 2018.73 496.7C2018.33 497 2017.83 497 2017.33 496.9V496.9ZM1982.42 485.6L2016.33 493L2034.03 411.3L2000.12 403.9L1982.42 485.6Z" fill="white"/>
<path d="M1996.52 392.1L1998.32 403.6L1997.42 407.6L1994.32 403.8C1993.32 402.5 1992.62 401 1992.22 399.4L1987.42 376.5C1989.22 383.2 1996.52 392.1 1996.52 392.1V392.1Z" fill="white"/>
<path d="M2056.84 391.602L2043.04 410.402C2042.04 411.702 2040.73 412.802 2039.33 413.502L2034.93 415.702L2035.73 411.702L2042.14 401.902C2042.14 401.902 2052.54 396.802 2056.84 391.602Z" fill="white"/>
<path d="M1996.12 336.2L2010.03 317.3C2010.93 316 2012.23 315 2013.73 314.2L2018.13 312L2017.23 316L2010.93 325.8C2010.93 325.8 2000.52 330.9 1996.12 336.2V336.2Z" fill="white"/>
<path d="M2056.44 335.702L2054.74 324.102L2055.64 320.102L2058.64 323.902C2059.74 325.202 2060.44 326.702 2060.74 328.302L2065.64 351.202C2063.84 344.602 2056.44 335.702 2056.44 335.702V335.702Z" fill="white"/>
<path d="M2067.64 358.699L2070.64 362.699C2070.94 363.099 2071.14 363.699 2071.14 364.299C2070.84 374.099 2068.34 380.399 2067.24 382.699C2066.94 383.299 2066.44 383.699 2065.84 383.999L2061.84 385.599C2069.64 372.499 2067.64 358.699 2067.64 358.699V358.699Z" fill="white"/>
<path d="M2057.54 394.599L2056.54 393.699L2062.04 387.199L2063.04 388.099L2057.54 394.599Z" fill="white"/>
<path d="M2068.54 357.399L2066.14 349.099L2067.44 348.699L2069.74 356.999L2068.54 357.399Z" fill="white"/>
<path d="M2029.73 330.901L2037.03 332.401C2037.23 332.501 2037.33 332.801 2037.23 332.901L2032.33 337.901C2032.13 338.101 2031.93 338.001 2031.83 337.801L2029.43 331.301C2029.33 331.001 2029.53 330.801 2029.73 330.901V330.901Z" fill="white"/>
<path d="M2020.13 396.199L2018.83 395.999L2020.53 388.199L2021.73 388.499L2020.13 396.199Z" fill="white"/>
<path d="M2058.14 371.599L2050.44 369.999L2050.74 368.699L2058.44 370.399L2058.14 371.599Z" fill="white"/>
<path d="M2002.63 359.599L1994.82 357.999L1995.12 356.699L2002.83 358.299L2002.63 359.599Z" fill="white"/>
<path fill-rule="evenodd" clip-rule="evenodd" d="M671.481 1495.6C663.679 1507.5 651.676 1515.2 638.773 1517.9C625.77 1520.6 611.766 1518.4 599.863 1510.5C575.957 1494.9 569.255 1462.8 584.959 1438.9C592.761 1427 604.664 1419.4 617.668 1416.6C630.571 1413.9 644.575 1416.2 656.578 1424C680.384 1439.7 687.086 1471.7 671.481 1495.6ZM672.782 1458C670.281 1446.1 663.379 1435.8 653.177 1429.2C642.974 1422.5 630.771 1420.2 618.868 1422.7C606.965 1425.2 596.762 1432.1 590.061 1442.3C583.459 1452.5 581.158 1464.7 583.559 1476.6C586.059 1488.5 593.061 1498.7 603.264 1505.4C613.466 1512 625.57 1514.3 637.473 1511.9C649.376 1509.4 659.678 1502.4 666.28 1492.2C672.982 1482 675.282 1469.9 672.782 1458V1458Z" fill="white"/>
<path d="M645.875 1469.6L627.77 1471.8L615.467 1445.8L619.668 1443.8L630.471 1466.8L645.275 1465.1L645.875 1469.6Z" fill="white"/>
<path fill-rule="evenodd" clip-rule="evenodd" d="M640.974 1412.6L593.961 1422.4C593.361 1422.5 592.761 1422.4 592.261 1422C591.761 1421.7 591.361 1421.2 591.261 1420.6L568.955 1313.8C568.755 1312.5 569.555 1311.3 570.755 1311L617.768 1301.2C618.268 1301.1 618.968 1301.2 619.468 1301.6C619.968 1301.9 620.268 1302.4 620.468 1303L642.774 1409.8C642.974 1411.1 642.174 1412.3 640.974 1412.6ZM595.262 1417.4L637.773 1408.5L616.367 1306.2L573.956 1315.1L595.262 1417.4Z" fill="white"/>
<path fill-rule="evenodd" clip-rule="evenodd" d="M685.085 1623.8L638.073 1633.6C636.873 1633.9 635.672 1633.1 635.372 1631.9L613.066 1525C612.966 1524.4 613.066 1523.8 613.367 1523.3C613.767 1522.8 614.267 1522.4 614.867 1522.3L661.779 1512.5C663.079 1512.3 664.28 1513.1 664.58 1514.3L686.885 1621.1C686.985 1621.7 686.885 1622.3 686.485 1622.9C686.185 1623.4 685.685 1623.7 685.085 1623.8V1623.8ZM639.373 1628.7L681.884 1619.8L660.479 1517.5L618.068 1526.4L639.373 1628.7Z" fill="white"/>
<path d="M607.965 1514.6L615.767 1526.9L616.867 1531.9L611.366 1529.1C609.566 1528.2 607.965 1526.8 606.765 1525.2L589.56 1501.5C595.062 1508.1 607.965 1514.6 607.965 1514.6V1514.6Z" fill="white"/>
<path d="M676.683 1483.3L670.381 1511.9C669.981 1513.9 668.981 1515.8 667.681 1517.3L663.779 1522.1L662.779 1517.1L665.08 1502.7C665.08 1502.7 674.282 1491.6 676.683 1483.3V1483.3Z" fill="white"/>
<path d="M579.058 1450.9L585.359 1422.4C585.759 1420.4 586.66 1418.5 587.96 1416.9L591.861 1412.2L592.861 1417.2L590.661 1431.6C590.661 1431.6 581.358 1442.7 579.058 1450.9V1450.9Z" fill="white"/>
<path d="M647.675 1419.7L639.873 1407.4L638.873 1402.4L644.274 1405.2C646.175 1406.1 647.675 1407.4 648.876 1409.1L666.08 1432.8C660.679 1426.1 647.675 1419.7 647.675 1419.7V1419.7Z" fill="white"/>
<path d="M672.282 1440.3L677.583 1443.3C678.283 1443.7 678.783 1444.3 678.983 1444.9C683.685 1456.3 683.985 1464.8 683.985 1467.9C683.885 1468.7 683.585 1469.5 683.085 1470.1L679.283 1474C681.484 1455.1 672.282 1440.3 672.282 1440.3Z" fill="white"/>
<path d="M678.883 1486.5L677.283 1486L680.384 1475.7L681.884 1476.2L678.883 1486.5Z" fill="white"/>
<path d="M672.582 1438.3L665.68 1430.1L666.88 1429.1L673.782 1437.3L672.582 1438.3Z" fill="white"/>
<path d="M614.767 1427.8L623.869 1425.9C624.169 1425.8 624.469 1426.1 624.369 1426.4L621.268 1434.5C621.168 1434.8 620.868 1434.8 620.668 1434.6L614.567 1428.4C614.367 1428.2 614.467 1427.8 614.767 1427.8V1427.8Z" fill="white"/>
<path d="M636.973 1507.4L635.372 1507.7L633.372 1498L634.972 1497.7L636.973 1507.4Z" fill="white"/>
<path d="M667.981 1459.9L658.278 1461.9L657.978 1460.3L667.58 1458.3L667.981 1459.9Z" fill="white"/>
<path d="M598.363 1474.4L588.66 1476.5L588.36 1474.9L598.063 1472.8L598.363 1474.4Z" fill="white"/>
<path fill-rule="evenodd" clip-rule="evenodd" d="M1531.7 260.901C1470.29 248.234 1408.87 235.568 1347.46 222.901C1338.05 221.001 1336.25 215.701 1342.55 207.901C1354.26 193.501 1365.76 178.801 1378.16 164.901C1385.97 156.201 1390.37 146.601 1392.67 135.101C1404.07 77.601 1416.17 20.301 1427.98 -37.099C1429.58 -44.599 1429.58 -44.599 1437.08 -43.099C1537.64 -22.3657 1638.2 -1.63233 1738.76 19.101C1746.46 20.701 1746.46 20.701 1744.86 28.501C1732.36 89.001 1719.85 149.501 1707.55 210.101C1706.65 214.201 1706.95 218.901 1708.05 223.001C1713.85 244.001 1720.25 264.801 1726.05 285.801C1727.05 289.301 1726.25 293.501 1725.65 297.201C1725.45 298.301 1723.15 299.601 1721.65 299.901C1719.95 300.201 1718.15 299.301 1716.45 299.001C1654.84 286.268 1593.25 273.568 1531.7 260.901V260.901ZM1695.25 201.501C1695.85 198.601 1696.25 196.601 1696.65 194.501C1707.38 142.501 1718.12 90.501 1728.85 38.501C1730.35 31.301 1730.35 31.301 1723.25 29.801C1631.43 10.8677 1539.61 -8.06567 1447.78 -26.999C1440.28 -28.499 1440.18 -28.499 1438.68 -21.099C1428.01 30.701 1417.34 82.5343 1406.67 134.401C1405.07 142.001 1405.07 142.001 1412.77 143.601C1504.4 162.534 1596.05 181.434 1687.74 200.301C1689.94 200.801 1692.24 201.001 1695.25 201.501V201.501ZM1710.25 283.401C1710.15 281.701 1710.35 280.501 1710.05 279.401C1704.35 259.701 1698.55 240.001 1692.94 220.201C1691.94 216.601 1689.74 215.201 1686.24 214.501C1593.69 195.501 1501.16 176.401 1408.67 157.201C1404.67 156.401 1401.97 157.201 1399.37 160.301C1386.67 176.001 1373.76 191.501 1360.96 207.201C1360.16 208.201 1359.66 209.401 1358.76 210.901C1476.19 235.101 1593.02 259.201 1710.25 283.401V283.401Z" fill="white"/>
<path fill-rule="evenodd" clip-rule="evenodd" d="M1538.31 228.2C1492.03 218.667 1445.78 209.133 1399.57 199.6C1397.47 199.1 1395.27 198.9 1393.37 197.9C1390.37 196.4 1388.87 194 1391.27 190.6C1396.17 183.9 1400.87 177 1406.17 170.5C1407.37 169 1410.27 168.5 1412.57 168C1414.07 167.8 1415.67 168.5 1417.27 168.9C1502.6 186.5 1588.02 204.1 1673.34 221.5C1679.64 222.8 1683.14 225.1 1684.14 231.7C1685.04 238.3 1687.04 244.8 1688.44 251.4C1689.34 255.8 1687.24 258.1 1682.74 257.9C1681.04 257.8 1679.24 257.3 1677.54 256.9C1631.13 247.367 1584.72 237.8 1538.31 228.2ZM1541.11 214.8C1582.12 223.2 1623.13 231.633 1664.14 240.1C1665.34 240.4 1666.54 240.9 1667.74 240.8C1668.94 240.7 1671.04 240.3 1671.14 239.6C1671.44 238.5 1670.84 236.7 1670.04 235.9C1668.94 234.9 1667.24 234.4 1665.74 234.1C1583.52 217.1 1501.3 200.2 1419.07 183.2C1416.07 182.6 1413.17 182.5 1412.17 185.9C1412.07 186.5 1415.47 188.8 1417.47 189.2C1458.68 197.8 1499.9 206.3 1541.11 214.8Z" fill="white"/>
<path fill-rule="evenodd" clip-rule="evenodd" d="M2769.62 1746.5C2724.14 1737.17 2678.7 1727.8 2633.29 1718.4C2626.29 1717 2624.89 1713.1 2629.59 1707.3C2638.29 1696.6 2646.79 1685.8 2655.89 1675.5C2661.7 1669 2665 1662 2666.7 1653.4C2675.2 1610.9 2684.1 1568.4 2692.9 1525.9C2694 1520.4 2694 1520.4 2699.6 1521.5C2774.02 1536.9 2848.44 1552.27 2922.86 1567.6C2928.56 1568.8 2928.56 1568.8 2927.36 1574.5C2918.16 1619.3 2908.86 1664.1 2899.76 1708.9C2899.16 1712 2899.36 1715.5 2900.16 1718.5C2904.46 1734 2909.16 1749.4 2913.46 1765C2914.16 1767.6 2913.66 1770.6 2913.16 1773.4C2913.06 1774.2 2911.36 1775.2 2910.16 1775.4C2908.96 1775.6 2907.66 1775 2906.36 1774.7C2860.75 1765.3 2815.17 1755.9 2769.62 1746.5V1746.5ZM2890.65 1702.6C2891.05 1700.5 2891.45 1698.9 2891.75 1697.4C2899.69 1658.93 2907.63 1620.43 2915.56 1581.9C2916.66 1576.6 2916.66 1576.6 2911.46 1575.5C2843.44 1561.5 2775.46 1547.5 2707.51 1533.5C2701.91 1532.3 2701.91 1532.3 2700.81 1537.8C2692.87 1576.13 2684.93 1614.5 2677 1652.9C2675.9 1658.5 2675.9 1658.6 2681.6 1659.7C2749.42 1673.7 2817.27 1687.7 2885.15 1701.7C2886.75 1702 2888.45 1702.2 2890.65 1702.6V1702.6ZM2901.76 1763.2C2901.76 1762 2901.86 1761.1 2901.66 1760.2C2897.46 1745.6 2893.15 1731 2888.95 1716.4C2888.25 1713.8 2886.55 1712.7 2884.05 1712.2C2815.5 1698.13 2746.98 1684 2678.5 1669.8C2675.6 1669.2 2673.6 1669.8 2671.7 1672.1C2662.2 1683.7 2652.69 1695.2 2643.19 1706.8C2642.59 1707.5 2642.29 1708.4 2641.59 1709.5C2728.51 1727.5 2814.93 1745.3 2901.76 1763.2Z" fill="white"/>
<path fill-rule="evenodd" clip-rule="evenodd" d="M2774.42 1722.3C2740.22 1715.3 2706.01 1708.23 2671.8 1701.1C2670.2 1700.8 2668.6 1700.6 2667.2 1699.9C2665 1698.8 2663.9 1697 2665.7 1694.5C2669.3 1689.5 2672.8 1684.4 2676.7 1679.7C2677.6 1678.5 2679.8 1678.1 2681.4 1677.8C2682.5 1677.6 2683.7 1678.2 2684.9 1678.4C2748.12 1691.4 2811.23 1704.5 2874.45 1717.4C2879.05 1718.4 2881.75 1720.1 2882.45 1724.9C2883.15 1729.8 2884.55 1734.6 2885.65 1739.5C2886.35 1742.8 2884.75 1744.5 2881.45 1744.3C2880.15 1744.2 2878.85 1743.9 2877.55 1743.6C2843.21 1736.53 2808.83 1729.43 2774.42 1722.3V1722.3ZM2776.52 1712.4C2806.87 1718.67 2837.24 1724.93 2867.65 1731.2C2868.55 1731.4 2869.45 1731.7 2870.35 1731.7C2871.25 1731.6 2872.75 1731.3 2872.85 1730.8C2873.05 1729.9 2872.65 1728.6 2871.95 1728C2871.15 1727.3 2869.95 1727 2868.75 1726.7C2807.93 1714.1 2747.12 1701.6 2686.3 1689C2684 1688.6 2681.9 1688.5 2681.2 1691C2681.1 1691.5 2683.6 1693.1 2685.1 1693.5C2715.61 1699.8 2746.02 1706.1 2776.52 1712.4Z" fill="white"/>
<path fill-rule="evenodd" clip-rule="evenodd" d="M2884.55 173C2888.55 191.5 2880.15 210.1 2862.95 218.5C2849.54 225.1 2835.24 230.5 2820.84 234.4C2801.63 239.6 2781.93 230.2 2773.32 212.2L2758.32 172.4C2752.62 152.3 2762.52 131.7 2781.53 123.2C2794.03 117.6 2806.93 112.7 2819.94 108.8C2840.44 102.6 2862.65 114.1 2870.55 133.9C2872.65 139.2 2874.55 144.6 2876.65 150C2876.45 150.1 2876.75 150 2876.65 150C2879.45 157.6 2882.95 165.1 2884.55 173V173ZM2874.65 168.3C2870.92 158.367 2867.15 148.4 2863.35 138.4C2856.35 120.2 2837.04 111.2 2818.64 117.8C2813.43 119.6 2808.23 121.7 2803.03 123.7C2797.63 125.7 2792.23 127.6 2786.83 129.8C2771.32 136.2 2761.92 152.7 2766.32 168.9L2780.73 207.8C2789.23 225.3 2807.13 231.4 2825.34 224.5C2835.04 220.9 2844.64 217.3 2854.24 213.6C2872.75 206.4 2881.55 186.8 2874.65 168.3V168.3Z" fill="white"/>
<path fill-rule="evenodd" clip-rule="evenodd" d="M2820.74 166.801C2816.13 154.701 2817.94 145.601 2824.94 139.101C2834.54 130.001 2850.04 133.301 2855.45 145.401C2856.25 147.301 2857.95 149.201 2859.75 150.401C2870.35 157.101 2874.55 170.501 2868.85 180.801C2864.35 189.101 2856.15 192.801 2847.04 190.101C2833.84 186.301 2825.24 177.201 2820.74 166.801V166.801ZM2828.74 164.001C2831.04 170.301 2840.24 179.001 2848.84 181.501C2854.34 183.101 2858.85 181.201 2861.45 176.101C2864.65 169.501 2861.45 161.701 2854.44 157.701C2851.84 156.101 2849.24 153.401 2848.14 150.701C2846.34 146.301 2843.44 143.001 2839.14 143.101C2835.94 143.101 2832.04 145.001 2829.64 147.301C2825.64 151.201 2826.34 156.501 2828.74 164.001V164.001Z" fill="white"/>
<path fill-rule="evenodd" clip-rule="evenodd" d="M2817.33 166.4C2820.94 176.6 2820.94 186.9 2816.73 197C2812.33 207.7 2804.83 212.7 2795.43 211.3C2785.23 209.8 2777.52 201.9 2777.22 190.8C2777.02 182.9 2777.72 175.1 2777.42 167.1C2777.02 158.6 2784.03 151.6 2792.03 150.1C2801.63 148.3 2811.53 153.5 2815.93 162.6C2816.53 163.8 2816.93 165.1 2817.33 166.4V166.4ZM2809.13 168.8C2808.73 168 2808.33 167.1 2807.83 166.2C2804.33 159.9 2797.23 156.9 2791.63 159.5C2786.23 161.9 2784.93 167.6 2787.53 175.2C2788.23 177.3 2787.33 180 2787.23 182.4C2787.03 186.3 2786.13 190.4 2786.93 194.1C2788.03 199.4 2792.53 202.4 2797.63 202.6C2802.73 202.8 2805.73 199.8 2807.73 195.5C2811.93 186.9 2812.13 178 2809.13 168.8V168.8Z" fill="white"/>
<path fill-rule="evenodd" clip-rule="evenodd" d="M95.833 1691C99.834 1709.5 91.4319 1728.1 74.2274 1736.5C60.824 1743.1 46.5203 1748.5 32.1166 1752.4C12.9116 1757.6 -6.79348 1748.2 -15.3957 1730.2L-30.3996 1690.4C-36.101 1670.3 -26.1985 1649.7 -7.19358 1641.2C5.30964 1635.6 18.213 1630.7 31.2163 1626.8C51.7216 1620.6 73.9274 1632.1 81.8294 1651.9C83.9299 1657.2 85.8304 1662.6 87.931 1668C87.7309 1668.1 88.031 1668 87.931 1668C90.7317 1675.6 94.2326 1683.1 95.833 1691V1691ZM85.9304 1686.3C82.1961 1676.37 78.4285 1666.4 74.6275 1656.4C67.6257 1638.2 48.3207 1629.2 29.916 1635.8C24.7147 1637.6 19.5133 1639.7 14.312 1641.7C8.91057 1643.7 3.50918 1645.6 -1.89221 1647.8C-17.3962 1654.2 -26.7986 1670.7 -22.3975 1686.9L-7.99379 1725.8C0.508404 1743.3 18.413 1749.4 36.6177 1742.5C46.3202 1738.9 55.9227 1735.3 65.5252 1731.6C84.03 1724.4 92.8322 1704.8 85.9304 1686.3V1686.3Z" fill="white"/>
<path fill-rule="evenodd" clip-rule="evenodd" d="M32.0165 1684.8C27.4154 1672.7 29.2158 1663.6 36.2176 1657.1C45.8201 1648 61.3241 1651.3 66.7255 1663.4C67.5257 1665.3 69.2261 1667.2 71.0266 1668.4C81.6293 1675.1 85.8304 1688.5 80.1289 1698.8C75.6278 1707.1 67.4257 1710.8 58.3233 1708.1C45.1199 1704.3 36.5177 1695.2 32.0165 1684.8V1684.8ZM40.0186 1682C42.3192 1688.3 51.5216 1697 60.1238 1699.5C65.6252 1701.1 70.1264 1699.2 72.727 1694.1C75.9279 1687.5 72.727 1679.7 65.7252 1675.7C63.1246 1674.1 60.5239 1671.4 59.4236 1668.7C57.6231 1664.3 54.7224 1661 50.4213 1661.1C47.2205 1661.1 43.3195 1663 40.9188 1665.3C36.9178 1669.2 37.618 1674.5 40.0186 1682V1682Z" fill="white"/>
<path fill-rule="evenodd" clip-rule="evenodd" d="M28.6157 1684.4C32.2166 1694.6 32.2166 1704.9 28.0155 1715C23.6144 1725.7 16.1124 1730.7 6.71 1729.3C-3.49263 1727.8 -11.1946 1719.9 -11.4947 1708.8C-11.6947 1700.9 -10.9946 1693.1 -11.2946 1685.1C-11.6947 1676.6 -4.69294 1669.6 3.30913 1668.1C12.9116 1666.3 22.8142 1671.5 27.2153 1680.6C27.8155 1681.8 28.2156 1683.1 28.6157 1684.4V1684.4ZM20.4135 1686.8C20.0134 1686 19.6133 1685.1 19.1132 1684.2C15.6123 1677.9 8.51047 1674.9 2.90902 1677.5C-2.49237 1679.9 -3.7927 1685.6 -1.19203 1693.2C-0.491853 1695.3 -1.39209 1698 -1.49211 1700.4C-1.69216 1704.3 -2.5924 1708.4 -1.79219 1712.1C-0.691905 1717.4 3.80926 1720.4 8.91057 1720.6C14.0119 1720.8 17.0127 1717.8 19.0132 1713.5C23.2143 1704.9 23.4143 1696 20.4135 1686.8V1686.8Z" fill="white"/>
<path fill-rule="evenodd" clip-rule="evenodd" d="M2145.36 1713C2149.36 1731.5 2140.96 1750.1 2123.76 1758.5C2110.35 1765.1 2096.05 1770.5 2081.65 1774.4C2062.44 1779.6 2042.74 1770.2 2034.13 1752.2L2019.13 1712.4C2013.43 1692.3 2023.33 1671.7 2042.34 1663.2C2054.84 1657.6 2067.74 1652.7 2080.75 1648.8C2101.25 1642.6 2123.46 1654.1 2131.36 1673.9C2133.46 1679.2 2135.36 1684.6 2137.46 1690C2137.26 1690.1 2137.56 1690 2137.46 1690C2140.26 1697.6 2143.76 1705.1 2145.36 1713V1713ZM2135.46 1708.3C2131.72 1698.37 2127.96 1688.4 2124.16 1678.4C2117.15 1660.2 2097.85 1651.2 2079.44 1657.8C2074.24 1659.6 2069.04 1661.7 2063.84 1663.7C2058.44 1665.7 2053.04 1667.6 2047.64 1669.8C2032.13 1676.2 2022.73 1692.7 2027.13 1708.9L2041.53 1747.8C2050.04 1765.3 2067.94 1771.4 2086.15 1764.5C2095.85 1760.9 2105.45 1757.3 2115.05 1753.6C2133.56 1746.4 2142.36 1726.8 2135.46 1708.3V1708.3Z" fill="white"/>
<path fill-rule="evenodd" clip-rule="evenodd" d="M2081.55 1706.8C2076.94 1694.7 2078.74 1685.6 2085.75 1679.1C2095.35 1670 2110.85 1673.3 2116.25 1685.4C2117.05 1687.3 2118.76 1689.2 2120.56 1690.4C2131.16 1697.1 2135.36 1710.5 2129.66 1720.8C2125.16 1729.1 2116.95 1732.8 2107.85 1730.1C2094.65 1726.3 2086.05 1717.2 2081.55 1706.8V1706.8ZM2089.55 1704C2091.85 1710.3 2101.05 1719 2109.65 1721.5C2115.15 1723.1 2119.66 1721.2 2122.26 1716.1C2125.46 1709.5 2122.26 1701.7 2115.25 1697.7C2112.65 1696.1 2110.05 1693.4 2108.95 1690.7C2107.15 1686.3 2104.25 1683 2099.95 1683.1C2096.75 1683.1 2092.85 1685 2090.45 1687.3C2086.45 1691.2 2087.15 1696.5 2089.55 1704V1704Z" fill="white"/>
<path fill-rule="evenodd" clip-rule="evenodd" d="M2078.14 1706.4C2081.75 1716.6 2081.75 1726.9 2077.54 1737C2073.14 1747.7 2065.64 1752.7 2056.24 1751.3C2046.04 1749.8 2038.33 1741.9 2038.03 1730.8C2037.83 1722.9 2038.53 1715.1 2038.23 1707.1C2037.83 1698.6 2044.84 1691.6 2052.84 1690.1C2062.44 1688.3 2072.34 1693.5 2076.74 1702.6C2077.34 1703.8 2077.74 1705.1 2078.14 1706.4V1706.4ZM2069.94 1708.8C2069.54 1708 2069.14 1707.1 2068.64 1706.2C2065.14 1699.9 2058.04 1696.9 2052.44 1699.5C2047.04 1701.9 2045.74 1707.6 2048.34 1715.2C2049.04 1717.3 2048.14 1720 2048.04 1722.4C2047.84 1726.3 2046.94 1730.4 2047.74 1734.1C2048.84 1739.4 2053.34 1742.4 2058.44 1742.6C2063.54 1742.8 2066.54 1739.8 2068.54 1735.5C2072.74 1726.9 2072.94 1718 2069.94 1708.8V1708.8Z" fill="white"/>
<path fill-rule="evenodd" clip-rule="evenodd" d="M286.282 1073.5C285.882 1075.17 285.482 1076.83 285.082 1078.5C279.88 1101.1 274.679 1123.67 269.478 1146.2C267.077 1156.7 261.276 1160.6 250.773 1158.2C210.096 1149 169.419 1139.67 128.741 1130.2C118.039 1127.7 114.838 1121.9 117.238 1111.3C127.775 1065.5 138.311 1019.73 148.847 974C151.247 963.6 156.749 959.8 167.051 962.1C207.929 971.367 248.772 980.734 289.583 990.2C299.886 992.6 303.387 998.7 301.086 1008.9C299.586 1015.6 297.485 1022.3 296.585 1029.1C295.584 1036.3 289.883 1040.8 283.681 1045.5C283.982 1042.7 284.882 1040.3 285.282 1038.6C287.682 1028.1 290.183 1017.6 292.484 1007.1C293.884 1001.1 293.084 1000 287.282 998.6C269.578 994.5 251.773 990.5 234.069 986.3C230.168 985.4 228.567 986.4 227.667 990.3C216.998 1037.3 206.195 1084.3 195.259 1131.3C194.358 1135.3 195.559 1136.7 199.36 1137.6C217.164 1141.5 234.869 1145.7 252.673 1149.7C258.375 1151 259.575 1150.3 260.976 1144.3C265.477 1124.9 270.078 1105.4 274.279 1086C275.679 1079.5 280.381 1076.3 284.882 1072.7C285.349 1072.97 285.815 1073.23 286.282 1073.5V1073.5ZM206.562 1060.1C211.963 1036.7 217.264 1013.1 222.866 989.7C223.766 985.5 223.066 983.7 218.665 982.7C200.96 978.9 183.456 974.7 165.851 970.7C159.449 969.3 158.249 970 156.749 976.4C146.346 1021.8 135.91 1067.23 125.441 1112.7C124.04 1119.1 124.74 1120.3 131.042 1121.8C148.647 1125.9 166.251 1129.8 183.756 1134C188.057 1135.1 189.657 1134 190.657 1129.7C195.759 1106.5 201.26 1083.3 206.562 1060.1V1060.1Z" fill="white"/>
<path d="M317.29 1036.4C315.29 1038.7 314.089 1040.5 312.489 1041.9C288.083 1064.6 263.676 1087.3 239.07 1109.6C233.869 1114.4 227.367 1117.8 221.365 1121.6C220.565 1122.2 218.465 1122.1 217.965 1121.5C217.364 1120.6 217.164 1118.7 217.664 1117.7C221.866 1109.2 227.767 1102 234.969 1095.5C257.975 1074.7 280.681 1053.5 303.387 1032.4C305.887 1030.1 309.988 1029.2 310.188 1024.6C310.188 1024.1 313.189 1022.8 313.689 1023.2C316.79 1026.1 319.691 1029.2 322.391 1032.5C322.792 1033 321.591 1035.3 320.691 1035.9C319.591 1036.6 317.99 1036.4 317.29 1036.4V1036.4Z" fill="white"/>
<path d="M209.062 1103.7C208.162 1101.3 208.762 1098.6 210.563 1096.7C212.663 1094.6 214.464 1092.7 216.664 1091.2C222.466 1087.3 228.967 1084.2 234.669 1080.1C243.571 1073.8 243.971 1068 236.969 1059.5C233.969 1055.9 230.568 1052.6 227.967 1048.8C222.866 1041.2 224.366 1033.8 232.568 1029.8C238.07 1027.2 244.471 1026.2 250.473 1024.9C251.673 1024.7 253.274 1026.3 254.674 1027.1C253.374 1027.9 252.173 1029.1 250.773 1029.5C245.772 1030.9 240.27 1031.4 235.569 1033.4C229.167 1036.1 228.167 1041.2 232.168 1046.8C234.769 1050.2 237.97 1053.3 240.77 1056.6C249.373 1066.4 248.672 1075.6 238.27 1083.4C232.568 1087.6 226.067 1090.7 220.265 1094.6C217.764 1096.2 215.264 1098.3 213.963 1100.8C213.263 1102 215.264 1104.6 215.764 1106.6C215.964 1107.9 215.664 1109.2 215.664 1110.5C214.364 1110.5 212.163 1110.8 211.863 1110.2C210.863 1108.2 209.962 1106.1 209.062 1103.7V1103.7Z" fill="white"/>
<path fill-rule="evenodd" clip-rule="evenodd" d="M2444.64 1349.5C2445.44 1351.3 2446.24 1353.1 2447.04 1354.9C2457.58 1379.17 2468.11 1403.43 2478.65 1427.7C2483.45 1438.9 2480.85 1446.4 2469.55 1451.4C2425.87 1470.47 2382.12 1489.43 2338.31 1508.3C2326.81 1513.2 2319.91 1510.1 2315.01 1498.7C2293.6 1449.5 2272.23 1400.3 2250.89 1351.1C2246.09 1340 2248.49 1332.7 2259.69 1327.8C2303.5 1308.6 2347.38 1289.57 2391.33 1270.7C2402.33 1265.9 2409.73 1269.2 2414.53 1280C2417.73 1287.3 2420.33 1294.8 2424.03 1301.7C2428.03 1309 2425.83 1317 2423.33 1325.5C2421.73 1322.7 2421.03 1319.9 2420.23 1318C2415.23 1306.8 2410.43 1295.5 2405.43 1284.2C2402.63 1277.8 2401.13 1277.2 2394.93 1279.9C2375.82 1288.2 2356.72 1296.6 2337.61 1304.7C2333.41 1306.5 2332.61 1308.5 2334.41 1312.6C2356.48 1363.13 2378.42 1413.7 2400.23 1464.3C2402.13 1468.5 2404.23 1469.1 2408.33 1467.3C2427.33 1458.8 2446.44 1450.6 2465.44 1442.3C2471.65 1439.6 2472.25 1438.1 2469.45 1431.7C2460.44 1410.8 2451.54 1389.8 2442.14 1369C2439.04 1362.1 2441.14 1356 2442.94 1349.7C2443.54 1349.63 2444.11 1349.57 2444.64 1349.5V1349.5ZM2362.42 1391.2C2351.42 1366 2340.41 1340.7 2329.61 1315.4C2327.71 1310.9 2325.71 1309.7 2321.01 1311.9C2302.2 1320.3 2283.2 1328.3 2264.39 1336.6C2257.49 1339.6 2256.89 1341.1 2259.89 1348C2281.1 1396.8 2302.3 1445.6 2323.51 1494.4C2326.51 1501.4 2328.01 1502 2334.81 1499C2353.72 1490.9 2372.52 1482.5 2391.53 1474.6C2396.23 1472.6 2396.93 1470.5 2394.93 1465.9C2383.92 1441.1 2373.22 1416.1 2362.42 1391.2Z" fill="white"/>
<path d="M2448.14 1294.4C2447.84 1297.8 2447.84 1300.3 2447.44 1302.7C2440.34 1340.1 2433.34 1377.4 2425.83 1414.7C2424.23 1422.6 2420.63 1430.1 2417.73 1437.7C2417.33 1438.7 2415.33 1440.1 2414.53 1439.8C2413.33 1439.4 2411.83 1437.9 2411.63 1436.6C2409.73 1425.9 2410.33 1415.3 2412.53 1404.5C2419.53 1369.8 2426.03 1334.9 2432.54 1300.1C2433.34 1296.3 2436.54 1292.6 2433.54 1288.3C2433.24 1287.8 2435.14 1284.6 2435.84 1284.7C2440.64 1285.2 2445.44 1286.1 2450.14 1287.3C2450.74 1287.5 2451.34 1290.4 2450.84 1291.7C2450.44 1293 2448.64 1293.9 2448.14 1294.4V1294.4Z" fill="white"/>
<path d="M2394.33 1429.6C2391.83 1427.9 2390.42 1425 2390.82 1422.1C2391.33 1418.8 2391.73 1415.8 2392.73 1413C2395.43 1405.4 2399.33 1398.2 2401.83 1390.5C2405.63 1378.7 2402.13 1373 2389.92 1370C2384.72 1368.7 2379.42 1368 2374.42 1366.2C2364.52 1362.7 2360.92 1355 2365.72 1345.7C2369.02 1339.5 2374.22 1334.4 2378.92 1329.1C2379.82 1328 2382.42 1328.4 2384.22 1328.2C2383.62 1329.8 2383.32 1331.7 2382.32 1333.1C2378.62 1337.8 2373.92 1341.9 2370.92 1347C2366.92 1353.8 2369.32 1359.1 2376.92 1361.5C2381.62 1363 2386.62 1363.6 2391.43 1364.7C2406.03 1368 2411.63 1376.9 2407.23 1391.1C2404.93 1398.8 2401.03 1406 2398.33 1413.6C2397.13 1416.7 2396.23 1420.4 2396.73 1423.6C2396.93 1425.2 2400.53 1426.2 2402.33 1427.7C2403.43 1428.7 2404.03 1430.1 2404.93 1431.4C2403.63 1432.2 2401.93 1434 2401.23 1433.7C2398.93 1432.5 2396.73 1431.1 2394.33 1429.6V1429.6Z" fill="white"/>
<path fill-rule="evenodd" clip-rule="evenodd" d="M950.254 363.7C950.454 365.7 950.687 367.667 950.954 369.6C954.155 395.867 957.322 422.133 960.456 448.4C961.957 460.5 957.255 467 945.052 468.5C897.707 474.367 850.361 480.067 803.015 485.6C790.612 487.1 784.911 482.2 783.41 469.8C776.942 416.533 770.507 363.3 764.105 310.1C762.605 298 767.006 291.8 779.109 290.3C826.588 284.367 874.101 278.6 921.646 273C933.549 271.6 939.651 276.8 941.151 288.6C942.151 296.4 942.552 304.4 944.152 312.1C945.852 320.2 941.451 327.2 936.65 334.7C935.95 331.6 935.95 328.6 935.75 326.6C934.249 314.4 932.849 302.2 931.249 290C930.348 283.1 929.148 282.1 922.346 282.9C901.741 285.4 881.036 288 860.43 290.3C855.829 290.8 854.529 292.5 855.129 297C861.864 351.667 868.466 406.367 874.934 461.1C875.534 465.7 877.335 466.8 881.736 466.3C902.441 463.6 923.046 461.2 943.752 458.7C950.454 457.9 951.354 456.6 950.554 449.6C947.853 427 945.252 404.3 942.251 381.8C941.251 374.2 944.952 369 948.553 363.5C949.087 363.567 949.653 363.633 950.254 363.7V363.7ZM859.53 380.3C856.129 353 852.728 325.6 849.628 298.3C849.127 293.4 847.627 291.7 842.426 292.4C822.02 295.2 801.515 297.5 781.11 300C773.708 300.9 772.708 302.2 773.608 309.6C779.943 362.467 786.311 415.3 792.713 468.1C793.713 475.6 794.913 476.7 802.315 475.8C822.721 473.3 843.126 470.7 863.631 468.5C868.732 467.9 870.033 466.2 869.333 461.2C865.932 434.2 862.731 407.2 859.53 380.3V380.3Z" fill="white"/>
<path d="M969.258 311.901C968.058 315.101 967.358 317.501 966.258 319.701C948.753 353.501 931.449 387.301 913.544 420.901C909.843 428.001 904.242 434.201 899.24 440.601C898.54 441.501 896.24 442.201 895.539 441.801C894.539 441.001 893.539 439.101 893.739 437.801C894.939 427.001 898.54 417.001 903.741 407.301C920.346 376.001 936.55 344.501 952.754 313.001C954.555 309.501 958.656 306.901 957.055 302.001C956.855 301.401 959.656 298.901 960.256 299.201C964.757 301.001 969.058 303.201 973.159 305.701C973.76 306.101 973.459 309.001 972.659 310.101C971.859 311.201 969.959 311.601 969.258 311.901V311.901Z" fill="white"/>
<path d="M879.135 426.101C877.235 423.901 876.734 420.701 877.935 418.001C879.335 415.001 880.635 412.201 882.336 409.801C887.137 403.301 892.839 397.501 897.44 390.901C904.542 380.601 902.741 374.201 891.938 367.801C887.337 365.101 882.436 362.901 878.135 359.801C869.633 353.601 868.332 345.101 875.634 337.601C880.535 332.701 887.037 329.201 893.039 325.401C894.239 324.701 896.54 325.801 898.44 326.101C897.34 327.501 896.54 329.301 895.139 330.201C890.238 333.701 884.636 336.401 880.235 340.401C874.434 345.701 875.334 351.501 881.836 356.001C885.937 358.701 890.538 360.801 894.839 363.201C907.842 370.501 910.743 380.601 902.541 393.001C898.04 399.701 892.338 405.501 887.537 412.001C885.537 414.701 883.636 417.901 883.136 421.101C882.936 422.701 886.037 424.701 887.337 426.701C888.137 427.901 888.337 429.501 888.838 430.901C887.337 431.301 885.137 432.601 884.636 432.101C882.736 430.301 881.036 428.301 879.135 426.101V426.101Z" fill="white"/>
</svg>
