<svg width="3947" height="2464" viewBox="0 0 3947 2464" fill="none" xmlns="http://www.w3.org/2000/svg">
<g clip-path="url(#clip0_313_2325)">
<path d="M3819.24 1486.62C3818.97 1488.16 3817.5 1489.19 3815.95 1488.92C3814.41 1488.65 3813.38 1487.18 3813.65 1485.64C3813.92 1484.09 3815.39 1483.06 3816.93 1483.33C3818.48 1483.6 3819.51 1485.07 3819.24 1486.62Z" fill="white"/>
<path d="M3775.68 1471.94C3772.59 1471.4 3769.64 1473.47 3769.1 1476.56L3739.08 1647.84C3738.54 1650.93 3740.61 1653.88 3743.69 1654.42L3828.04 1669.21C3831.13 1669.75 3834.08 1667.68 3834.62 1664.59L3864.67 1493.31C3865.21 1490.23 3863.14 1487.28 3860.06 1486.73L3775.68 1471.94ZM3826.73 1676.67L3742.38 1661.88C3735.19 1660.62 3730.36 1653.73 3731.62 1646.53L3761.64 1475.25C3762.91 1468.05 3769.79 1463.22 3776.99 1464.48L3861.37 1479.28C3868.56 1480.54 3873.39 1487.42 3872.13 1494.62L3842.08 1665.9C3840.82 1673.1 3833.93 1677.93 3826.73 1676.67Z" fill="white"/>
<path d="M3726.71 1475.42C3728.19 1478.77 3729.5 1481.1 3730.29 1483.58C3742.53 1522.06 3754.92 1560.49 3766.73 1599.1C3769.24 1607.28 3769.67 1616.12 3770.8 1624.69C3770.95 1625.86 3769.74 1628.16 3768.89 1628.31C3767.54 1628.54 3765.41 1627.82 3764.56 1626.76C3757.36 1617.69 3752.56 1607.5 3749.14 1596.33C3738.13 1560.34 3726.59 1524.5 3715.11 1488.65C3713.86 1484.74 3714.98 1479.68 3710.04 1477.17C3709.47 1476.88 3709.7 1472.9 3710.38 1472.63C3715.12 1470.67 3720.04 1469.07 3725.02 1467.84C3725.71 1467.68 3727.7 1470.1 3727.92 1471.51C3728.15 1472.99 3726.97 1474.69 3726.71 1475.42Z" fill="white"/>
<path d="M335.026 177.703C335.388 178.891 334.716 180.147 333.527 180.508C332.339 180.868 331.083 180.197 330.723 179.009C330.362 177.821 331.033 176.565 332.221 176.204C333.409 175.843 334.666 176.514 335.026 177.703Z" fill="white"/>
<path d="M298.988 182.909C296.615 183.63 295.27 186.147 295.991 188.526L336.006 320.34C336.729 322.717 339.247 324.062 341.62 323.341L406.534 303.636C408.911 302.913 410.257 300.396 409.535 298.018L369.541 166.198C368.819 163.82 366.301 162.475 363.928 163.195L298.988 182.909ZM408.277 309.376L343.362 329.082C337.824 330.763 331.949 327.624 330.266 322.082L290.251 190.268C288.569 184.725 291.708 178.85 297.245 177.169L362.185 157.455C367.723 155.773 373.598 158.913 375.281 164.455L415.275 296.275C416.957 301.818 413.819 307.693 408.277 309.376Z" fill="white"/>
<path d="M265.615 202.878C267.862 204.714 269.614 205.891 271.063 207.367C293.475 230.186 315.973 252.923 338.128 275.991C342.825 280.883 346.292 286.976 350.154 292.633C350.682 293.406 350.646 295.462 350.094 295.873C349.225 296.519 347.463 296.775 346.481 296.322C338.151 292.487 331.111 287.001 324.705 280.33C304.05 258.822 283.08 237.614 262.145 216.378C259.861 214.059 258.849 210.083 254.459 210.075C253.952 210.074 252.692 207.178 253.07 206.741C255.726 203.664 258.628 200.772 261.713 198.125C262.139 197.759 264.415 198.761 265.073 199.678C265.763 200.643 265.536 202.267 265.615 202.878Z" fill="white"/>
<path d="M683.889 1889.63C676.753 1901.47 665.437 1909.82 652.022 1913.14C638.607 1916.47 624.699 1914.37 612.863 1907.23C601.029 1900.1 592.679 1888.78 589.354 1875.36C586.03 1861.95 588.129 1848.04 595.262 1836.21C602.397 1824.37 613.714 1816.02 627.13 1812.7C640.543 1809.37 654.449 1811.47 666.287 1818.6C678.122 1825.74 686.473 1837.06 689.797 1850.47C693.122 1863.89 691.022 1877.79 683.889 1889.63ZM669.901 1812.61C656.009 1804.23 640.037 1802.28 625.445 1805.9C610.853 1809.52 597.639 1818.7 589.265 1832.59C572.515 1860.38 581.463 1896.48 609.249 1913.23C623.141 1921.6 639.114 1923.55 653.706 1919.94C668.298 1916.32 681.51 1907.14 689.885 1893.25C706.634 1865.46 697.687 1829.36 669.901 1812.61Z" fill="white"/>
<path d="M659.711 1864.85L639.251 1868.08L624.236 1839.06L628.874 1836.66L642.159 1862.34L658.898 1859.7L659.711 1864.85Z" fill="white"/>
<path d="M600.135 1807.68L647.956 1795.83L619.392 1680.57L571.572 1692.42L600.135 1807.68ZM651.751 1800.26C651.748 1800.26 651.746 1800.26 651.744 1800.26L598.858 1813.37C598.187 1813.54 597.475 1813.43 596.882 1813.07C596.29 1812.72 595.863 1812.14 595.696 1811.47L565.878 1691.15C565.532 1689.75 566.382 1688.34 567.776 1687.99C567.779 1687.99 567.78 1687.99 567.783 1687.98L620.671 1674.88C621.342 1674.71 622.051 1674.82 622.646 1675.18C623.238 1675.53 623.666 1676.11 623.831 1676.78L653.65 1797.1C653.998 1798.5 653.146 1799.91 651.751 1800.26Z" fill="white"/>
<path d="M659.115 2045.67L706.938 2033.82L678.375 1918.56L630.553 1930.41L659.115 2045.67ZM710.733 2038.25C710.73 2038.25 710.727 2038.25 710.725 2038.25L657.838 2051.36C656.439 2051.71 655.023 2050.85 654.677 2049.45L624.858 1929.13C624.691 1928.46 624.798 1927.75 625.157 1927.16C625.513 1926.57 626.089 1926.14 626.758 1925.97C626.761 1925.97 626.762 1925.97 626.763 1925.97L679.655 1912.87C681.053 1912.52 682.467 1913.37 682.815 1914.77L712.631 2035.09C712.797 2035.77 712.691 2036.48 712.333 2037.07C711.977 2037.66 711.402 2038.09 710.733 2038.25Z" fill="white"/>
<path d="M597.22 1903.38L617.704 1929.53C619.142 1931.37 620.994 1932.83 623.112 1933.81L629.433 1936.74L628.037 1931.11L618.616 1917.49C618.616 1917.49 603.677 1910.7 597.22 1903.38Z" fill="white"/>
<path d="M695.227 1879.1L689.325 1911.78C688.91 1914.08 687.957 1916.24 686.542 1918.1L682.319 1923.63L680.925 1918L682.894 1901.56C682.894 1901.56 692.933 1888.58 695.227 1879.1Z" fill="white"/>
<path d="M583.107 1846.44L589.011 1813.75C589.425 1811.46 590.378 1809.3 591.793 1807.44L596.017 1801.91L597.41 1807.53L595.441 1823.98C595.441 1823.98 585.402 1836.96 583.107 1846.44Z" fill="white"/>
<path d="M681.117 1822.15L660.633 1796C659.194 1794.17 657.339 1792.7 655.223 1791.72L648.903 1788.8L650.299 1794.43L659.719 1808.05C659.719 1808.05 674.659 1814.84 681.117 1822.15Z" fill="white"/>
<path d="M697.824 1868.41L701.94 1863.77C702.541 1863.09 702.873 1862.21 702.863 1861.3C702.821 1857.77 702.108 1848.07 696.321 1835.43C695.977 1834.67 695.397 1834.06 694.664 1833.68L688.412 1830.44C688.412 1830.44 699.525 1846.81 697.824 1868.41Z" fill="white"/>
<path d="M697.907 1882.59L696.104 1882.13L699.119 1870.32L700.922 1870.78L697.907 1882.59Z" fill="white"/>
<path d="M688.674 1828.18L680.497 1819.15L681.877 1817.9L690.053 1826.93L688.674 1828.18Z" fill="white"/>
<path d="M622.696 1818.63L632.95 1816.09C633.272 1816.01 633.558 1816.32 633.452 1816.63L630.336 1826.02C630.238 1826.31 629.868 1826.4 629.643 1826.19L622.506 1819.35C622.267 1819.12 622.374 1818.71 622.696 1818.63Z" fill="white"/>
<path d="M651.264 1908.07L649.457 1908.52L646.756 1897.62L648.563 1897.17L651.264 1908.07Z" fill="white"/>
<path d="M684.392 1852.89L673.492 1855.59L673.044 1853.78L683.944 1851.08L684.392 1852.89Z" fill="white"/>
<path d="M606.013 1872.31L595.113 1875.01L594.665 1873.2L605.565 1870.5L606.013 1872.31Z" fill="white"/>
<path d="M3096.77 118.721C3090.41 123.509 3082.57 125.537 3074.68 124.429C3066.8 123.319 3059.82 119.207 3055.03 112.851C3050.25 106.493 3048.22 98.6512 3049.33 90.7686C3050.43 82.8859 3054.55 75.9072 3060.9 71.1166C3067.26 66.3272 3075.1 64.3006 3082.99 65.4099C3090.87 66.5179 3097.85 70.6299 3102.64 76.9872C3107.43 83.3446 3109.45 91.1872 3108.34 99.0699C3107.24 106.951 3103.12 113.93 3096.77 118.721ZM3105.86 74.5606C3100.23 67.0979 3092.12 62.6219 3083.55 61.4152C3074.97 60.2099 3065.94 62.2739 3058.48 67.8966C3043.55 79.1406 3040.57 100.353 3051.81 115.277C3057.43 122.739 3065.55 127.217 3074.12 128.422C3082.7 129.629 3091.73 127.563 3099.19 121.942C3114.12 110.698 3117.1 89.4846 3105.86 74.5606Z" fill="white"/>
<path d="M3089.18 100.281L3077.55 97.6039L3075.77 78.8719L3078.76 78.5866L3080.34 95.1613L3089.85 97.3519L3089.18 100.281Z" fill="white"/>
<path d="M3069.64 56.9212L3097.74 60.8732L3107.27 -6.84942L3079.17 -10.8001L3069.64 56.9212ZM3098.81 64.0599C3098.81 64.0599 3098.81 64.0599 3098.81 64.0586L3067.74 59.6892C3067.34 59.6346 3066.98 59.4239 3066.74 59.1052C3066.5 58.7866 3066.4 58.3866 3066.46 57.9919L3076.4 -12.7068C3076.52 -13.5281 3077.27 -14.1001 3078.09 -13.9868C3078.1 -13.9868 3078.1 -13.9868 3078.1 -13.9868L3109.17 -9.61609C3109.57 -9.56142 3109.93 -9.35075 3110.17 -9.03209C3110.4 -8.71342 3110.51 -8.31342 3110.45 -7.91875L3100.51 62.7799C3100.39 63.6012 3099.64 64.1732 3098.81 64.0599Z" fill="white"/>
<path d="M3049.98 196.76L3078.07 200.713L3087.6 132.992L3059.5 129.038L3049.98 196.76ZM3079.15 203.9C3079.15 203.9 3079.14 203.9 3079.14 203.898L3048.07 199.528C3047.25 199.412 3046.67 198.652 3046.79 197.83L3056.73 127.132C3056.79 126.737 3057 126.38 3057.32 126.141C3057.63 125.901 3058.03 125.797 3058.43 125.852C3058.43 125.852 3058.43 125.852 3058.43 125.853L3089.51 130.224C3090.33 130.34 3090.9 131.1 3090.79 131.922L3080.84 202.62C3080.79 203.014 3080.58 203.372 3080.26 203.612C3079.94 203.85 3079.54 203.954 3079.15 203.9Z" fill="white"/>
<path d="M3047.5 107.432L3052.83 125.806C3053.2 127.097 3053.87 128.28 3054.79 129.258L3057.54 132.18L3058.01 128.872L3055.9 119.568C3055.9 119.568 3049.38 112.728 3047.5 107.432Z" fill="white"/>
<path d="M3105.09 115.532L3094.91 131.727C3094.19 132.863 3093.22 133.815 3092.06 134.501L3088.62 136.551L3089.08 133.244L3093.67 124.88C3093.67 124.88 3101.83 120.105 3105.09 115.532Z" fill="white"/>
<path d="M3052.21 73.9727L3062.39 57.778C3063.11 56.642 3064.08 55.69 3065.24 55.0047L3068.68 52.9527L3068.22 56.2607L3063.63 64.6247C3063.63 64.6247 3055.47 69.3993 3052.21 73.9727Z" fill="white"/>
<path d="M3109.8 82.0703L3104.48 63.6943C3104.1 62.405 3103.43 61.2223 3102.51 60.2436L3099.76 57.3223L3099.29 60.629L3101.4 69.9343C3101.4 69.9343 3107.92 76.7743 3109.8 82.0703Z" fill="white"/>
<path d="M3108.78 110.379L3111.97 108.783C3112.44 108.548 3112.81 108.151 3113 107.664C3113.73 105.766 3115.44 100.431 3115.07 92.4309C3115.04 91.9549 3114.87 91.5002 3114.56 91.1389L3111.91 88.0629C3111.91 88.0629 3114.33 99.2016 3108.78 110.379Z" fill="white"/>
<path d="M3105.77 117.973L3104.91 117.339L3109.06 111.681L3109.92 112.314L3105.77 117.973Z" fill="white"/>
<path d="M3112.54 86.918L3110.11 80.3353L3111.12 79.9633L3113.55 86.5473L3112.54 86.918Z" fill="white"/>
<path d="M3079.34 67.6266L3085.37 68.4733C3085.56 68.5013 3085.64 68.7266 3085.52 68.8719L3081.84 73.2146C3081.72 73.3506 3081.5 73.3213 3081.43 73.1573L3079.09 67.9679C3079.01 67.7933 3079.15 67.5999 3079.34 67.6266Z" fill="white"/>
<path d="M3075.37 121.559L3074.31 121.409L3075.21 115.004L3076.27 115.153L3075.37 121.559Z" fill="white"/>
<path d="M3104.94 99.1992L3098.53 98.2979L3098.68 97.2352L3105.09 98.1366L3104.94 99.1992Z" fill="white"/>
<path d="M3058.88 92.7227L3052.48 91.8213L3052.63 90.7587L3059.03 91.66L3058.88 92.7227Z" fill="white"/>
<path d="M2287.39 233.647C2287.25 231.621 2287.44 230.079 2287 228.757C2279.06 204.878 2270.98 181.049 2263.11 157.15C2261.67 152.799 2258.96 151.237 2254.7 150.569C2141.88 132.903 2029.07 115.162 1916.28 97.2781C1911.39 96.5021 1908.16 97.6128 1905.25 101.617C1890.7 121.617 1875.99 141.499 1861.38 161.457C1860.45 162.734 1859.88 164.289 1858.89 166.21C2002.11 188.751 2144.47 211.154 2287.39 233.647ZM2264.86 134.031C2265.41 130.499 2265.82 127.942 2266.22 125.385C2276.36 60.9168 2286.51 -3.55121 2296.66 -68.0192C2298.06 -76.9619 2298.06 -76.9819 2289.44 -78.3379C2177.48 -95.9632 2065.52 -113.583 1953.56 -131.201C1944.4 -132.642 1944.38 -132.631 1942.93 -123.443C1932.81 -59.1912 1922.7 5.06079 1912.59 69.3141C1911.1 78.8101 1911.11 78.8328 1920.5 80.3115C2032.25 97.9035 2144 115.491 2255.75 133.058C2258.47 133.485 2261.22 133.65 2264.86 134.031ZM2070.5 216.95C1995.65 205.17 1920.79 193.39 1845.94 181.609C1834.43 179.798 1831.96 173.509 1839.2 163.533C1852.57 145.087 1865.64 126.382 1879.83 108.599C1888.82 97.3354 1893.65 85.3608 1895.8 71.0408C1906.47 -0.18988 1917.95 -71.3019 1929.15 -142.455C1930.61 -151.734 1930.62 -151.746 1939.82 -150.298C2062.39 -131.011 2184.96 -111.721 2307.53 -92.4286C2316.94 -90.9472 2316.94 -90.9339 2315.43 -81.3365C2303.62 -6.30188 2291.73 68.7221 2280.16 143.793C2279.37 148.903 2279.94 154.695 2281.51 159.619C2289.66 185.039 2298.52 210.218 2306.64 235.643C2308 239.903 2307.35 245.007 2306.81 249.626C2306.65 251.029 2303.87 252.746 2302.04 253.169C2300.08 253.619 2297.83 252.723 2295.71 252.39C2220.64 240.579 2145.57 228.765 2070.5 216.95Z" fill="white"/>
<path d="M2079.33 159.756C2129.33 167.625 2179.33 175.495 2229.34 183.363C2230.82 183.596 2232.34 184.137 2233.78 183.964C2235.24 183.788 2237.67 183.103 2237.82 182.289C2238.09 180.888 2237.33 178.704 2236.24 177.787C2234.88 176.644 2232.79 176.184 2230.94 175.892C2130.73 160.079 2030.52 144.32 1930.31 128.511C1926.6 127.927 1923.06 127.964 1922.14 132.251C1921.98 133.012 1926.27 135.54 1928.71 135.932C1978.9 143.989 2029.12 151.853 2079.33 159.756ZM2076.68 176.423C2020.3 167.551 1963.92 158.683 1907.55 149.789C1905.02 149.389 1902.32 149.192 1900.04 148.145C1896.26 146.412 1894.32 143.553 1897.1 139.28C1902.68 130.732 1908 121.995 1913.97 113.741C1915.42 111.74 1918.9 110.947 1921.61 110.299C1923.36 109.879 1925.4 110.716 1927.31 111.016C2031.37 127.391 2135.43 143.845 2239.53 159.989C2247.12 161.165 2251.53 163.777 2253.04 171.787C2254.56 179.868 2257.29 187.704 2259.34 195.688C2260.71 201.02 2258.32 204.029 2252.83 203.976C2250.7 203.956 2248.57 203.469 2246.45 203.136C2189.86 194.236 2133.27 185.329 2076.68 176.423Z" fill="white"/>
<path d="M4018.06 2588.32C4017.91 2586.29 4018.1 2584.75 4017.66 2583.42C4009.72 2559.55 4001.65 2535.72 3993.77 2511.82C3992.34 2507.47 3989.63 2505.9 3985.37 2505.24C3872.54 2487.57 3759.73 2469.83 3646.95 2451.95C3642.05 2451.17 3638.83 2452.28 3635.92 2456.28C3621.37 2476.28 3606.66 2496.17 3592.05 2516.12C3591.11 2517.4 3590.55 2518.96 3589.55 2520.88C3732.78 2543.42 3875.13 2565.82 4018.06 2588.32ZM3995.52 2488.7C3996.08 2485.17 3996.48 2482.61 3996.88 2480.05C4007.03 2415.58 4017.18 2351.12 4027.32 2286.65C4028.73 2277.71 4028.73 2277.69 4020.11 2276.33C3908.15 2258.7 3796.19 2241.08 3684.22 2223.47C3675.06 2222.03 3675.04 2222.04 3673.6 2231.22C3663.48 2295.48 3653.37 2359.73 3643.26 2423.98C3641.77 2433.48 3641.77 2433.5 3651.16 2434.98C3762.91 2452.57 3874.66 2470.16 3986.42 2487.73C3989.13 2488.15 3991.89 2488.32 3995.52 2488.7ZM3801.17 2571.62C3726.31 2559.84 3651.46 2548.06 3576.6 2536.28C3565.1 2534.47 3562.63 2528.18 3569.86 2518.2C3583.23 2499.76 3596.31 2481.05 3610.5 2463.27C3619.48 2452 3624.31 2440.03 3626.46 2425.71C3637.14 2354.48 3648.62 2283.37 3659.82 2212.21C3661.28 2202.93 3661.29 2202.92 3670.49 2204.37C3793.06 2223.66 3915.63 2242.95 4038.19 2262.24C4047.6 2263.72 4047.6 2263.73 4046.09 2273.33C4034.28 2348.37 4022.4 2423.39 4010.83 2498.46C4010.04 2503.57 4010.6 2509.36 4012.18 2514.29C4020.32 2539.71 4029.18 2564.89 4037.31 2590.31C4038.67 2594.57 4038.02 2599.68 4037.48 2604.29C4037.31 2605.7 4034.54 2607.41 4032.71 2607.84C4030.75 2608.29 4028.49 2607.39 4026.37 2607.06C3951.31 2595.25 3876.24 2583.43 3801.17 2571.62Z" fill="white"/>
<path d="M3880.95 264.963C3868.47 268.363 3855.95 271.588 3843.44 274.845C3819.87 280.983 3798.27 271.1 3789.96 248.191L3777.14 197.796C3773.83 177.036 3787.7 157.665 3807.88 151.724C3814.79 149.688 3821.81 148.025 3828.77 146.184C3835.54 144.397 3842.27 142.504 3849.07 140.859C3872.78 135.124 3895.79 148.859 3902.1 172.488C3905.55 185.389 3908.96 198.301 3912.29 211.232C3918.46 235.163 3904.9 258.435 3880.95 264.963ZM3917.11 188.648C3917.31 188.596 3916.92 188.695 3917.11 188.643C3915.28 181.673 3913.53 174.68 3911.59 167.737C3904.43 141.989 3878.2 124.755 3851.89 129.793C3835.08 133.013 3818.39 137.443 3802.12 142.783C3777.26 150.944 3762.19 175.328 3766.68 201.116L3780.24 252.717C3788.53 276.259 3811.9 290.556 3836.55 286.571C3855.05 283.579 3873.52 278.695 3891.13 272.248C3913.61 264.012 3926.51 241.971 3924.03 218.309C3922.98 208.319 3919.7 198.476 3917.11 188.648Z" fill="white"/>
<path d="M3855.63 199.772C3857.65 207.932 3867.94 220.067 3878.31 224.289C3885.06 227.036 3890.87 225.208 3894.75 219.12C3899.65 211.412 3896.62 201.264 3888.48 195.272C3885.42 193.015 3882.56 189.347 3881.49 185.761C3879.79 180.067 3876.7 175.597 3871.27 175.073C3867.26 174.688 3862.22 176.557 3858.94 179.1C3853.35 183.439 3853.52 190.143 3855.63 199.772ZM3845.21 202.319C3841.13 186.615 3844.52 175.5 3854.06 168.26C3867.26 158.247 3886.2 164.383 3891.27 180.107C3892.08 182.632 3893.9 185.236 3895.99 186.883C3908.38 196.684 3911.8 213.921 3903.44 225.968C3896.68 235.725 3886.03 239.331 3874.99 234.803C3859.03 228.252 3849.48 215.827 3845.21 202.319Z" fill="white"/>
<path d="M3825.32 236.411C3822.24 241.456 3818.11 244.802 3811.78 243.915C3805.48 243.032 3800.16 238.59 3799.49 231.942C3799.01 227.188 3800.7 222.214 3801.44 217.34C3801.9 214.33 3803.32 211.119 3802.71 208.354C3800.54 198.568 3802.86 191.676 3809.93 189.346C3817.29 186.918 3825.75 191.487 3829.23 199.787C3829.73 200.958 3830.15 202.158 3830.55 203.214C3833.03 215.05 3831.62 226.123 3825.32 236.411ZM3839.8 196.36C3835.46 184.436 3823.8 176.715 3811.71 177.703C3801.52 178.536 3791.8 186.304 3791.18 197.012C3790.6 206.972 3788.62 216.659 3787.86 226.474C3786.77 240.418 3795.32 251.25 3807.93 254.447C3819.45 257.366 3829.42 252.179 3836.32 239.404C3842.83 227.348 3844.2 214.558 3841.11 201.27C3840.68 199.631 3840.38 197.946 3839.8 196.36Z" fill="white"/>
<path d="M1009.78 1150.15C1015.56 1116.21 1021.22 1082.24 1027.24 1048.34C1028.31 1042.3 1027.12 1039.75 1020.67 1038.74C995.224 1034.74 969.864 1030.19 944.461 1025.91C935.229 1024.36 933.596 1025.54 932.015 1034.8C920.817 1100.42 909.64 1166.04 898.48 1231.66C896.893 1240.99 898.037 1242.68 907.157 1244.24C932.545 1248.62 957.977 1252.74 983.317 1257.36C989.569 1258.51 991.779 1256.86 992.789 1250.63C998.231 1217.1 1004.07 1183.64 1009.78 1150.15ZM1124.47 1162.65C1124.06 1165.08 1123.65 1167.51 1123.23 1169.95C1117.68 1202.56 1112.14 1235.17 1106.56 1267.78C1103.97 1282.89 1096.04 1288.94 1080.87 1286.39C1022.07 1276.54 963.297 1266.54 904.557 1256.34C889.151 1253.67 884.032 1245.73 886.655 1230.31C897.9 1164.18 909.163 1098.06 920.448 1031.94C923.004 1016.97 930.527 1011.06 945.509 1013.55C1004.54 1023.39 1063.54 1033.46 1122.51 1043.68C1137.29 1046.24 1142.8 1054.67 1140.37 1069.31C1138.74 1079.06 1136.39 1088.73 1135.58 1098.54C1134.73 1108.9 1126.98 1115.73 1118.55 1122.97C1118.75 1118.97 1119.91 1115.47 1120.32 1113.01C1122.82 1097.82 1125.5 1082.67 1128.01 1067.48C1129.43 1058.88 1128.3 1057.25 1119.88 1055.8C1094.24 1051.38 1068.57 1047.17 1042.97 1042.58C1037.34 1041.57 1035.17 1043.16 1034.23 1048.76C1022.79 1116.72 1011.23 1184.65 999.508 1252.57C998.517 1258.3 1000.35 1260.28 1005.86 1261.17C1031.53 1265.33 1057.15 1269.84 1082.8 1274.16C1091.1 1275.56 1092.75 1274.35 1094.24 1265.7C1099.08 1237.63 1104.05 1209.58 1108.5 1181.45C1109.99 1172.07 1116.3 1167.11 1122.53 1161.72C1123.18 1162.03 1123.83 1162.34 1124.47 1162.65Z" fill="white"/>
<path d="M1165.77 1107.28C1163.13 1110.69 1161.46 1113.35 1159.33 1115.56C1126.36 1149.82 1093.51 1184.2 1060.16 1218.09C1053.09 1225.27 1044.18 1230.68 1035.94 1236.65C1034.81 1237.47 1031.75 1237.5 1031.12 1236.7C1030.12 1235.44 1029.67 1232.83 1030.3 1231.35C1035.65 1218.81 1043.51 1208.12 1053.15 1198.32C1084.25 1166.73 1114.88 1134.68 1145.56 1102.69C1148.91 1099.19 1154.78 1097.53 1154.61 1091C1154.59 1090.25 1158.84 1088.25 1159.5 1088.8C1164.19 1092.62 1168.61 1096.81 1172.67 1101.28C1173.23 1101.9 1171.84 1105.32 1170.5 1106.34C1169.1 1107.4 1166.67 1107.13 1165.77 1107.28Z" fill="white"/>
<path d="M1016.97 1212.12C1015.46 1208.72 1016.05 1204.75 1018.49 1201.95C1021.23 1198.81 1023.72 1195.94 1026.67 1193.68C1034.68 1187.54 1043.66 1182.66 1051.51 1176.35C1063.66 1166.58 1063.83 1158.27 1053.11 1146.78C1048.57 1141.91 1043.46 1137.49 1039.45 1132.22C1031.49 1121.74 1032.98 1111.16 1044.4 1104.78C1052 1100.54 1061.02 1098.69 1069.56 1096.35C1071.24 1095.89 1073.66 1098.1 1075.75 1099.08C1073.97 1100.37 1072.36 1102.17 1070.38 1102.85C1063.26 1105.27 1055.58 1106.44 1048.91 1109.71C1040.08 1114.04 1038.98 1121.32 1045.27 1128.96C1049.2 1133.73 1053.97 1137.8 1058.29 1142.25C1071.28 1155.65 1071.09 1168.8 1056.84 1180.71C1049.12 1187.16 1040.16 1192.1 1032.07 1198.13C1028.71 1200.64 1025.34 1203.85 1023.6 1207.51C1022.74 1209.34 1025.8 1212.84 1026.64 1215.71C1027.15 1217.44 1026.82 1219.42 1026.86 1221.3C1024.98 1221.29 1021.9 1221.99 1021.42 1221.17C1019.79 1218.37 1018.43 1215.41 1016.97 1212.12Z" fill="white"/>
<path d="M619.359 145.658C617.807 126.931 616.188 108.209 614.768 89.471C614.514 86.133 613.539 84.9473 609.993 85.2866C595.998 86.6252 581.975 87.6649 567.965 88.8505C562.874 89.2816 562.171 90.1279 562.592 95.2375C565.58 131.445 568.579 167.651 571.589 203.856C572.016 209.005 572.851 209.739 577.884 209.331C591.898 208.195 605.901 206.922 619.925 205.928C623.385 205.683 624.329 204.513 624.018 201.084C622.344 182.619 620.89 164.135 619.359 145.658ZM681.687 136.695C681.798 138.038 681.909 139.381 682.02 140.724C683.511 158.717 685.012 176.708 686.487 194.702C687.17 203.043 683.801 207.315 675.435 208.03C643.015 210.803 610.588 213.496 578.152 216.078C569.645 216.755 565.861 213.255 565.154 204.748C562.122 168.265 559.099 131.781 556.09 95.2957C555.408 87.0345 558.582 82.8887 566.841 82.1755C599.384 79.3633 631.938 76.6743 664.499 74.0731C672.659 73.4211 676.717 77.1281 677.417 85.1988C677.882 90.5698 677.95 96.0059 678.856 101.3C679.813 106.893 676.642 111.552 673.166 116.525C672.732 114.382 672.871 112.375 672.752 111.021C672.015 102.653 671.372 94.2767 670.635 85.9091C670.218 81.1684 669.399 80.4611 664.751 80.8369C650.601 81.9792 636.46 83.2388 622.303 84.2874C619.191 84.5182 618.259 85.6546 618.52 88.741C621.7 126.219 624.808 163.703 627.832 201.193C628.087 204.361 629.326 205.156 632.357 204.88C646.494 203.59 660.649 202.501 674.795 201.302C679.373 200.913 680.08 200.053 679.694 195.277C678.444 179.782 677.26 164.278 675.795 148.802C675.307 143.643 677.971 140.165 680.535 136.469C680.918 136.544 681.302 136.62 681.687 136.695Z" fill="white"/>
<path d="M696 101.823C695.072 103.986 694.545 105.615 693.718 107.076C680.941 129.662 668.246 152.296 655.215 174.736C652.453 179.493 648.478 183.561 644.931 187.839C644.445 188.424 642.835 188.856 642.39 188.518C641.692 187.984 641.098 186.668 641.231 185.8C642.357 178.445 645.06 171.728 648.828 165.239C660.978 144.318 672.821 123.218 684.697 102.139C685.993 99.8377 688.867 98.1598 687.891 94.734C687.778 94.3384 689.754 92.7079 690.179 92.9042C693.174 94.2871 696.079 95.9029 698.833 97.7149C699.215 97.9664 698.942 99.9659 698.374 100.683C697.777 101.438 696.459 101.624 696 101.823Z" fill="white"/>
<path d="M631.571 177.443C630.313 175.852 630.088 173.674 630.998 171.862C632.019 169.829 632.947 167.976 634.199 166.379C637.597 162.048 641.684 158.246 644.977 153.845C650.074 147.032 649.032 142.614 641.808 137.999C638.747 136.042 635.443 134.398 632.612 132.157C626.978 127.695 626.332 121.9 631.501 116.981C634.944 113.704 639.458 111.5 643.658 109.104C644.486 108.632 646.066 109.475 647.3 109.712C646.533 110.633 645.931 111.803 644.972 112.43C641.536 114.677 637.637 116.338 634.555 118.971C630.475 122.458 630.884 126.457 635.246 129.642C637.968 131.63 641.043 133.132 643.931 134.901C652.617 140.22 654.299 147.197 648.386 155.425C645.182 159.882 641.113 163.711 637.658 168.001C636.221 169.783 634.873 171.936 634.455 174.106C634.247 175.19 636.336 176.625 637.171 178.027C637.676 178.876 637.771 179.969 638.05 180.951C637.054 181.205 635.517 181.991 635.153 181.622C633.91 180.366 632.794 178.986 631.571 177.443Z" fill="white"/>
<path d="M3092.91 1983.45C3089.63 1943.87 3086.21 1904.3 3083.21 1864.7C3082.67 1857.64 3080.61 1855.14 3073.11 1855.85C3043.54 1858.68 3013.9 1860.88 2984.29 1863.39C2973.53 1864.3 2972.04 1866.09 2972.93 1876.89C2979.25 1953.41 2985.59 2029.93 2991.95 2106.45C2992.85 2117.33 2994.61 2118.88 3005.25 2118.02C3034.87 2115.62 3064.47 2112.93 3094.11 2110.83C3101.42 2110.31 3103.41 2107.84 3102.76 2100.59C3099.22 2061.57 3096.14 2022.5 3092.91 1983.45ZM3224.64 1964.51C3224.87 1967.34 3225.11 1970.18 3225.34 1973.02C3228.49 2011.05 3231.67 2049.07 3234.78 2087.1C3236.23 2104.73 3229.1 2113.76 3211.42 2115.27C3142.91 2121.13 3074.37 2126.82 3005.82 2132.28C2987.84 2133.71 2979.84 2126.31 2978.35 2108.34C2971.94 2031.23 2965.55 1954.12 2959.19 1877.01C2957.75 1859.55 2964.46 1850.79 2981.91 1849.28C3050.69 1843.34 3119.49 1837.65 3188.31 1832.15C3205.56 1830.78 3214.13 1838.61 3215.61 1855.67C3216.6 1867.02 3216.74 1878.51 3218.65 1889.7C3220.68 1901.52 3213.98 1911.37 3206.63 1921.88C3205.71 1917.35 3206.01 1913.11 3205.75 1910.24C3204.2 1892.56 3202.84 1874.86 3201.28 1857.17C3200.4 1847.15 3198.67 1845.66 3188.85 1846.45C3158.94 1848.87 3129.05 1851.53 3099.13 1853.74C3092.55 1854.23 3090.58 1856.63 3091.14 1863.16C3097.86 1942.36 3104.42 2021.59 3110.82 2100.82C3111.36 2107.52 3113.97 2109.2 3120.38 2108.61C3150.26 2105.89 3180.17 2103.59 3210.07 2101.05C3219.75 2100.23 3221.24 2098.41 3220.43 2088.32C3217.78 2055.57 3215.28 2022.8 3212.19 1990.09C3211.15 1979.19 3216.78 1971.84 3222.2 1964.03C3223.01 1964.19 3223.83 1964.35 3224.64 1964.51Z" fill="white"/>
<path d="M3254.89 1890.8C3252.93 1895.37 3251.81 1898.82 3250.07 1901.91C3223.06 1949.64 3196.23 1997.48 3168.69 2044.9C3162.85 2054.96 3154.45 2063.55 3146.95 2072.6C3145.93 2073.83 3142.52 2074.75 3141.58 2074.03C3140.11 2072.9 3138.85 2070.12 3139.14 2068.29C3141.52 2052.74 3147.23 2038.55 3155.19 2024.83C3180.87 1980.61 3205.9 1936.02 3231 1891.47C3233.74 1886.61 3239.81 1883.06 3237.75 1875.82C3237.51 1874.98 3241.69 1871.54 3242.59 1871.95C3248.92 1874.87 3255.06 1878.29 3260.88 1882.12C3261.68 1882.65 3261.11 1886.88 3259.91 1888.39C3258.64 1889.99 3255.86 1890.38 3254.89 1890.8Z" fill="white"/>
<path d="M3118.72 2050.62C3116.06 2047.26 3115.58 2042.66 3117.51 2038.83C3119.67 2034.53 3121.63 2030.62 3124.27 2027.24C3131.45 2018.09 3140.09 2010.05 3147.05 2000.75C3157.82 1986.35 3155.62 1977.01 3140.36 1967.26C3133.88 1963.12 3126.9 1959.65 3120.92 1954.91C3109.01 1945.48 3107.65 1933.23 3118.57 1922.84C3125.85 1915.91 3135.39 1911.26 3144.26 1906.19C3146.01 1905.19 3149.35 1906.97 3151.96 1907.47C3150.34 1909.42 3149.07 1911.89 3147.04 1913.22C3139.78 1917.97 3131.54 1921.48 3125.03 1927.04C3116.4 1934.41 3117.27 1942.87 3126.49 1949.6C3132.24 1953.8 3138.74 1956.97 3144.84 1960.71C3163.2 1971.95 3166.76 1986.7 3154.26 2004.09C3147.49 2013.51 3138.89 2021.6 3131.58 2030.67C3128.55 2034.43 3125.7 2038.99 3124.81 2043.57C3124.37 2045.86 3128.79 2048.89 3130.56 2051.86C3131.62 2053.65 3131.82 2055.96 3132.41 2058.04C3130.31 2058.57 3127.06 2060.23 3126.29 2059.46C3123.66 2056.8 3121.3 2053.89 3118.72 2050.62Z" fill="white"/>
<path d="M149.601 1233.01L409.121 746.279L562.844 835.53C567.972 839.102 571.358 844.701 572.133 850.908C572.914 857.149 570.988 863.441 566.847 868.177L566.737 868.309L330.113 1174.81L694.477 1242.33C702.724 1243.86 709.873 1248.89 714.094 1256.14C718.312 1263.39 719.158 1272.09 716.416 1280.02L654.842 1457.84L149.601 1233.01Z" fill="#A096C9"/>
<path d="M408.007 742.375L145.696 1234.34L656.487 1461.64L719.062 1280.93C725.382 1262.67 713.975 1243.07 694.98 1239.55L335.138 1172.88L568.954 870.016C578.745 858.818 576.591 841.589 564.342 833.147L408.007 742.375ZM410.223 750.157L561.322 837.889C565.751 841.01 568.667 845.866 569.339 851.245C570.021 856.691 568.338 862.186 564.727 866.318L564.613 866.446L564.509 866.582L330.694 1169.44L325.072 1176.72L334.116 1178.4L693.958 1245.08C701.4 1246.46 707.852 1251 711.66 1257.54C715.466 1264.08 716.23 1271.94 713.753 1279.09L653.183 1454.02L153.492 1231.66L410.223 750.157Z" fill="#5BC5F2"/>
<path d="M144.127 1247.28L151.609 1250.81C159.992 1254.77 170.085 1251.14 174.037 1242.76L416.056 764.798C420.011 756.415 416.388 746.322 408.005 742.367L387.904 730.577C379.523 726.621 369.427 730.244 365.472 738.627L136.077 1224.85C132.122 1233.23 135.744 1243.33 144.127 1247.28Z" fill="#5BC5F2"/>
<path d="M139.786 1217.87L136.256 1225.35C132.301 1233.73 135.923 1243.83 144.305 1247.78L630.533 1477.18C638.913 1481.13 652.538 1470.03 656.491 1461.65L665.606 1436.39C669.561 1428.01 665.939 1417.92 657.556 1413.96L162.217 1209.82C153.834 1205.86 143.741 1209.49 139.786 1217.87Z" fill="#5BC5F2"/>
<path d="M331.472 1174.07L167.018 1226.71" stroke="#5BC5F2" stroke-width="1.41333" stroke-miterlimit="10"/>
<path d="M430.341 830.082C432.391 836.454 433.431 843.29 433.296 850.367C433.129 860.862 430.419 870.699 425.79 879.361C414.868 899.773 393.182 913.508 368.44 913.104C333.221 912.504 305.135 883.488 305.726 848.243C306.303 813.029 335.345 784.937 370.587 785.529C398.733 785.996 422.33 804.613 430.341 830.082Z" fill="white"/>
<path d="M430.347 830.088C432.397 836.46 433.437 843.295 433.301 850.372C433.134 860.868 430.425 870.705 425.795 879.366C423.76 879.832 421.621 880.076 419.426 880.027C405.026 879.792 393.552 867.916 393.785 853.516C394.017 839.114 405.897 827.642 420.297 827.875C423.88 827.926 427.288 828.722 430.347 830.088Z" fill="black"/>
<path d="M575.961 887.4C577.12 891 577.705 894.865 577.63 898.862C577.536 904.792 576.003 910.351 573.39 915.246C567.217 926.779 554.963 934.542 540.982 934.313C521.081 933.974 505.212 917.578 505.547 897.663C505.873 877.764 522.281 861.89 542.196 862.225C558.1 862.49 571.432 873.009 575.961 887.4Z" fill="white"/>
<path d="M575.972 887.424C577.132 891.023 577.716 894.888 577.641 898.885C577.548 904.815 576.015 910.375 573.401 915.269C572.251 915.533 571.042 915.671 569.801 915.641C561.663 915.509 555.181 908.799 555.313 900.662C555.445 892.524 562.157 886.041 570.292 886.174C572.318 886.201 574.242 886.651 575.972 887.424Z" fill="black"/>
<path d="M3478.99 1967.25L3595.38 1900.96L3615.37 1939.22C3615.96 1940.61 3615.93 1942.2 3615.28 1943.58C3614.63 1944.96 3613.42 1946 3611.96 1946.44L3611.92 1946.45L3523.6 1978.71L3589.66 2039.81C3591.15 2041.19 3591.97 2043.15 3591.89 2045.19C3591.82 2047.22 3590.87 2049.12 3589.27 2050.39L3553.58 2078.92L3478.99 1967.25Z" fill="#A096C9"/>
<path d="M3595.65 1900.01L3478.01 1967.02L3553.42 2079.91L3589.7 2050.92C3593.36 2047.99 3593.56 2042.49 3590.12 2039.31L3524.88 1978.96L3612.15 1947.09C3615.61 1946.06 3617.4 1942.24 3615.98 1938.92L3595.65 1900.01ZM3595.1 1901.9L3614.75 1939.5C3615.25 1940.72 3615.22 1942.09 3614.66 1943.28C3614.1 1944.49 3613.04 1945.4 3611.76 1945.78L3611.72 1945.79L3611.68 1945.81L3524.41 1977.68L3522.31 1978.45L3523.95 1979.96L3589.19 2040.31C3590.54 2041.56 3591.28 2043.32 3591.21 2045.16C3591.14 2047 3590.28 2048.71 3588.85 2049.86L3553.73 2077.92L3479.96 1967.48L3595.1 1901.9Z" fill="#5BC5F2"/>
<path d="M3476.01 1969.48L3477.09 1971.17C3478.3 1973.07 3480.84 1973.63 3482.74 1972.43L3594.4 1905.66C3596.3 1904.46 3596.86 1901.91 3595.65 1900.01L3593.05 1894.99C3591.85 1893.09 3589.3 1892.52 3587.4 1893.73L3477.26 1963.83C3475.37 1965.04 3474.8 1967.58 3476.01 1969.48Z" fill="#5BC5F2"/>
<path d="M3478.93 1962.87L3477.24 1963.95C3475.34 1965.16 3474.77 1967.7 3475.98 1969.6L3546.08 2079.74C3547.28 2081.64 3551.52 2081.13 3553.42 2079.92L3558.57 2075.91C3560.47 2074.71 3561.03 2072.16 3559.82 2070.27L3484.58 1964.13C3483.37 1962.23 3480.83 1961.67 3478.93 1962.87Z" fill="#5BC5F2"/>
<path d="M3523.97 1978.73L3483.38 1968.22" stroke="#5BC5F2" stroke-width="1.41333" stroke-miterlimit="10"/>
<path d="M3588.87 1920.92C3588.46 1922.5 3587.79 1924.04 3586.84 1925.47C3585.45 1927.6 3583.62 1929.27 3581.54 1930.45C3576.66 1933.23 3570.42 1933.24 3565.39 1929.94C3558.24 1925.25 3556.24 1915.66 3560.93 1908.5C3565.61 1901.34 3575.22 1899.34 3582.37 1904.03C3588.09 1907.77 3590.52 1914.65 3588.87 1920.92Z" fill="white"/>
<path d="M3588.87 1920.92C3588.46 1922.49 3587.79 1924.03 3586.84 1925.47C3585.45 1927.6 3583.62 1929.27 3581.54 1930.45C3581.07 1930.28 3580.6 1930.05 3580.15 1929.76C3577.22 1927.84 3576.41 1923.91 3578.32 1920.99C3580.24 1918.06 3584.16 1917.25 3587.09 1919.16C3587.82 1919.64 3588.42 1920.24 3588.87 1920.92Z" fill="black"/>
<path d="M3611.34 1951.57C3611.11 1952.45 3610.73 1953.32 3610.19 1954.14C3609.41 1955.34 3608.37 1956.28 3607.2 1956.95C3604.44 1958.52 3600.91 1958.52 3598.07 1956.66C3594.03 1954.01 3592.9 1948.59 3595.55 1944.54C3598.2 1940.5 3603.62 1939.37 3607.67 1942.02C3610.9 1944.14 3612.27 1948.02 3611.34 1951.57Z" fill="white"/>
<path d="M3611.34 1951.57C3611.11 1952.46 3610.73 1953.33 3610.19 1954.14C3609.4 1955.35 3608.37 1956.29 3607.2 1956.96C3606.93 1956.86 3606.66 1956.73 3606.41 1956.57C3604.76 1955.48 3604.3 1953.27 3605.38 1951.61C3606.46 1949.96 3608.68 1949.5 3610.33 1950.58C3610.74 1950.85 3611.08 1951.19 3611.34 1951.57Z" fill="black"/>
<path d="M3584.58 1044.94L3386.11 865.033L3330.48 931.046C3328.73 933.52 3328.1 936.635 3328.76 939.599C3329.43 942.58 3331.34 945.14 3334.01 946.626L3334.08 946.668L3492.52 1047.95L3337.05 1138.58C3333.53 1140.63 3331.09 1144.11 3330.35 1148.11C3329.61 1152.12 3330.65 1156.24 3333.2 1159.41L3390.52 1230.59L3584.58 1044.94Z" fill="#A096C9"/>
<path d="M3385.98 863.064L3586.58 1044.91L3390.39 1232.59L3332.14 1160.26C3326.26 1152.95 3328.26 1142.12 3336.36 1137.4L3489.91 1047.89L3333.35 947.81C3327.04 944.297 3325.2 936.069 3329.41 930.201L3385.98 863.064ZM3386.24 866.984L3331.57 931.873C3330.06 934.026 3329.52 936.724 3330.09 939.293C3330.68 941.894 3332.35 944.13 3334.67 945.426L3334.75 945.466L3334.82 945.511L3491.38 1045.59L3495.14 1047.99L3491.28 1050.24L3337.74 1139.75C3334.56 1141.61 3332.36 1144.74 3331.69 1148.35C3331.02 1151.97 3331.96 1155.68 3334.27 1158.55L3390.65 1228.57L3582.58 1044.96L3386.24 866.984Z" fill="#5BC5F2"/>
<path d="M3589.42 1050.57L3586.58 1053.41C3583.4 1056.59 3578.19 1056.59 3575.01 1053.41L3385.98 874.635C3382.8 871.452 3382.8 866.244 3385.98 863.061L3393.23 854.374C3396.41 851.191 3401.62 851.191 3404.81 854.374L3589.42 1038.99C3592.61 1042.17 3592.61 1047.38 3589.42 1050.57Z" fill="#5BC5F2"/>
<path d="M3586.58 1036.42L3589.42 1039.26C3592.61 1042.44 3592.61 1047.65 3589.42 1050.83L3404.8 1235.45C3401.62 1238.63 3393.57 1235.79 3390.39 1232.61L3382.08 1222.56C3378.9 1219.37 3378.9 1214.17 3382.08 1210.98L3575.01 1036.42C3578.19 1033.23 3583.4 1033.23 3586.58 1036.42Z" fill="#5BC5F2"/>
<path d="M3491.78 1047.84L3575.59 1044.92" stroke="#5BC5F2" stroke-width="1.41333" stroke-miterlimit="10"/>
<path d="M3390.16 906.826C3390.27 910.075 3390.91 913.37 3392.14 916.583C3393.93 921.353 3396.79 925.405 3400.32 928.604C3408.66 936.143 3420.83 938.864 3432.07 934.62C3448.07 928.568 3456.15 910.698 3450.1 894.685C3444.06 878.684 3426.17 870.607 3410.16 876.659C3397.37 881.49 3389.64 893.87 3390.16 906.826Z" fill="white"/>
<path d="M3390.16 906.816C3390.26 910.064 3390.91 913.359 3392.13 916.572C3393.93 921.342 3396.78 925.394 3400.32 928.594C3401.33 928.473 3402.35 928.233 3403.34 927.851C3409.88 925.381 3413.18 918.07 3410.71 911.527C3408.24 904.982 3400.93 901.687 3394.39 904.155C3392.76 904.767 3391.33 905.69 3390.16 906.816Z" fill="black"/>
<path d="M3333 956.904C3333.06 958.74 3333.43 960.602 3334.12 962.417C3335.13 965.112 3336.74 967.402 3338.74 969.21C3343.46 973.469 3350.33 975.007 3356.68 972.61C3365.72 969.19 3370.29 959.092 3366.87 950.044C3363.45 941.002 3353.35 936.438 3344.3 939.858C3337.08 942.588 3332.71 949.583 3333 956.904Z" fill="white"/>
<path d="M3333 956.92C3333.06 958.756 3333.42 960.618 3334.11 962.433C3335.13 965.128 3336.74 967.418 3338.74 969.227C3339.31 969.158 3339.88 969.023 3340.45 968.806C3344.14 967.41 3346.01 963.28 3344.61 959.582C3343.22 955.884 3339.08 954.022 3335.39 955.417C3334.47 955.762 3333.66 956.283 3333 956.92Z" fill="black"/>
</g>
<defs>
<clipPath id="clip0_313_2325">
<rect width="3946.67" height="2464" fill="white"/>
</clipPath>
</defs>
</svg>
